<svg xmlns="http://www.w3.org/2000/svg" viewBox="0 0 253.85 289.64"><defs><style>.cls-1{fill:#fff;}.cls-2{fill:#293549;}.cls-3{fill:#3bab5e;}.cls-4{fill:#f7f8f9;}.cls-5{fill:#424143;opacity:0.4;}.cls-5,.cls-6{isolation:isolate;}.cls-6{fill:#221f1f;opacity:0.1;}</style></defs><title>Asset 2</title><g id="Layer_2" data-name="Layer 2"><g id="Paguina_inicial_escritorio" data-name="Paguina inicial escritorio"><g id="apps-mobiles"><path class="cls-1" d="M0,77.81a12.23,12.23,0,0,1,5.51-9.57L121.42,1.3a12.33,12.33,0,0,1,11,0L248.34,68.24a12.23,12.23,0,0,1,5.51,9.57V211.69a12.23,12.23,0,0,1-5.51,9.56L132.43,288.19a12.26,12.26,0,0,1-11,0L5.51,221.25A12.23,12.23,0,0,1,0,211.69Z"/><path class="cls-2" d="M60.56,48.54a7.8,7.8,0,0,1,7.83-7.83H185.75a7.8,7.8,0,0,1,7.83,7.83V241.1a7.79,7.79,0,0,1-7.83,7.82H68.39a7.79,7.79,0,0,1-7.83-7.82Z"/><rect class="cls-3" x="68.39" y="67.95" width="117.36" height="147.06"/><path class="cls-4" d="M131.85,53.46h-9.71a.38.38,0,0,1-.43-.43.46.46,0,0,1,.43-.43h9.71a.43.43,0,1,1,0,.86Z"/><path class="cls-4" d="M135,55.64H119.1a.47.47,0,0,1-.43-.44.38.38,0,0,1,.43-.43H135a.46.46,0,0,1,.43.43A.38.38,0,0,1,135,55.64Z"/><path class="cls-4" d="M131.85,57.67h-9.71a.47.47,0,0,1-.43-.44.46.46,0,0,1,.43-.43h9.71a.38.38,0,0,1,.44.43A.39.39,0,0,1,131.85,57.67Z"/><path class="cls-4" d="M127.07,241.82a8.43,8.43,0,0,1-8.4-8.54,8.31,8.31,0,0,1,8.4-8.41,8.41,8.41,0,0,1,8.4,8.41A8.53,8.53,0,0,1,127.07,241.82Zm0-16.22a7.68,7.68,0,1,0,7.68,7.68A7.73,7.73,0,0,0,127.07,225.6Z"/><rect class="cls-4" x="78.1" y="75.78" width="97.8" height="27.67"/><rect class="cls-5" x="112.44" y="112.58" width="63.61" height="27.67"/><rect class="cls-5" x="78.1" y="112.29" width="27.96" height="27.96"/><rect class="cls-5" x="112.44" y="147.06" width="63.61" height="27.67"/><rect class="cls-5" x="78.1" y="146.78" width="27.96" height="27.96"/><rect class="cls-5" x="112.44" y="181.4" width="63.61" height="27.67"/><rect class="cls-5" x="78.1" y="181.26" width="27.96" height="27.96"/><path class="cls-6" d="M248.34,68.24,132.29,1.3A10.34,10.34,0,0,0,127.07,0V289.64a10.35,10.35,0,0,0,5.22-1.31L248.2,221.39a12.23,12.23,0,0,0,5.51-9.56v-134A11.73,11.73,0,0,0,248.34,68.24Z"/></g></g></g></svg>