<svg xmlns="http://www.w3.org/2000/svg" viewBox="0 0 349.58 318.76"><defs><style>.cls-1{fill:#d1ecfb;}.cls-2{fill:#57d357;}.cls-3{fill:#c1e2de;}.cls-4{fill:#0e303f;}.cls-5,.cls-9{fill:#fff;}.cls-6{fill:#103754;}.cls-7{fill:#fd6120;}.cls-8{fill:#b7c9cb;}.cls-9{font-size:16.63px;font-family:HelveticaNeue-Bold, Helvetica Neue;font-weight:700;}</style></defs><title>Asset 1</title><g id="Layer_2" data-name="Layer 2"><g id="Paguina_inicial_escritorio" data-name="Paguina inicial escritorio"><g id="Porque_somos_tu_mejor_elección" data-name="Porque somos tu mejor elección"><path class="cls-1" d="M190.09,0C102.2,0,30.71,71.5,30.71,159.38S102.2,318.76,190.09,318.76,349.58,247.38,349.58,159.5,278,0,190.09,0Z"/><path class="cls-2" d="M341.1,202.81c-2.06,0-4.81,1-4.81,1.71s-2.86,1.95-3.89,2.41-2.75,3.32-3.21,4.24-2.75.69-3.55,1S323,214,323,214.84s-.46.68-1-.23l-1.15,1.14-1.37,1.49c-.8,2.41-3.32,5.5-4.24,5.73s-1,4.47-1,6.19a8.17,8.17,0,0,0,1.49,4.7v1.37l.23,2.75a4.8,4.8,0,0,0,1.6,4.36c.46.34,4.35-.69,5.84-1l2.07-.8a162.24,162.24,0,0,0,16.38-38A1.18,1.18,0,0,1,341.1,202.81Z"/><path class="cls-2" d="M77.91,206.82c-.23.45,2.64,3.32,3.67,4.35a29.94,29.94,0,0,1,3.9,7.33,13.25,13.25,0,0,1,0,4.7,7.71,7.71,0,0,0,.57,2.41c.11.57-.92,5.15-.57,7.1s-2.18,7.68-2.07,10.66,1.38,6.64,1.84,6.41.68,2.64-.12,3-1.95,2.64-1.37,2.75,0,2.41.11,3.33.92,7,1,8.47,2.29,5.16,2.75,6.42.92,3.55,1,3.9l.35.8a10.71,10.71,0,0,1,2.29,1c.46.34,3.89.11,5-.12s.12-1.26-.34-1.71-.92-3.21-1.49-3.44-.8-3.67-.35-4.47,2.52-2,2.75-2.64.23-3.55-.23-4,.12-4-.22-5.84,3.09-3.44,3.32-4.81,4-3,4.81-3.67,1.6-4.81,1.15-5.61,1.37-1.61,2.17-1.61A10.58,10.58,0,0,0,110,241c.22,0,1.26-1.83,1.71-2.18s1.61-4.69,2.52-5.38a7.77,7.77,0,0,0,1.72-4,10.82,10.82,0,0,1,2-3.67c.46-.69,4-2.29,4.7-2.52s1.6-6,1.83-8a47.05,47.05,0,0,1,1.38-5.5c0-.69,1.14-1.26,1.37-1.49s1-2.86,1.61-3.44,2.52-3.09,2.52-3.66a18.52,18.52,0,0,1,.68-3.21v-3.55c-.57-1.72-2.52-3.9-3-3.33s-2.64-1.49-3.79-1.94a18.66,18.66,0,0,0-4.58-.69c-.69,0-3.09-2-4.24-2.29s-3.89-.8-4.35-1.15-1.15-4.47-3.44-5.84-6.19-4.59-6.65-5.73-4.69-3.55-6.07-4.36-3.32-.91-3.55-.57-1.95-2.29-2.75-3-3.44-1.26-3.55-.68-1.84.22-2.18-.23-1.72.23-2.41.45-2.75,3.44-3.78,4.24-2.17-.68-2.86-1a6.9,6.9,0,0,0-3.78,1c-.69.46-2.18-3.43-1.84-5.27s-1.6-5.38-3.2-5.5-2-3.89-1.72-5.27-2.75-2.29-3.55-2.4-2.64,1.83-3,2.86-7.34-1.26-6.53-5.5,4.12-8.59,4.92-9.05,5.27-.69,6.3-.12a1.85,1.85,0,0,0,2.07-.22,13.85,13.85,0,0,1,4.92.45c1,.46,2.64,4.7,3.78,5.16s1.49-2.75,1.72-3.55a10.34,10.34,0,0,0-.8-3.33c-.23-.57,1.83-5.72,3.55-6.53s3.56-3.78,3.33-4.24,1.37-.91,1.71-1.14,0-4.36.58-5.27a19.77,19.77,0,0,1,4.92-3.21c1-.46,1.72-3,1.38-3.55s2.63-3,4.24-3.55,2.86.91,2.52,1,2.41-1.26,3.32-1.84,0-2.63-.69-3.21-.22-2.75.58-3,1.49-2.18,1.26-2.53,3.44.35,4.81-.68.34,2.4-.57,3.89a1.61,1.61,0,0,0,.4,2.24,1.52,1.52,0,0,0,1,.28,1.48,1.48,0,0,1,1.49,1.15c.12.34,1.49-.46,2.41,0s1.49-1.26,1.49-2.06-2.18-2.29-2.52-3.33a52.81,52.81,0,0,1-.46-7.44c0-1-1.49-2.87-1.95-2.52s-1.37-2.87-2.18-3.56a4,4,0,0,1-.91-2.75c0-.45-2.52-3.2-3.21-4.46s-1.49-1-1.6-.46-1.84.68-2.64.57-1.37-3-1.37-4-3.33-1.26-3.9-2.18-2.75-.46-3.09-1a3.65,3.65,0,0,0-2.64-.91c-.34.22-.23,8.13-.57,10.19s-2.18,4-2.87,3.9-.23,1.49.12,1.37-1.26,2.29-1.49,3.9-1.84,0-2.06-1.49-1.84-3.44-2.18-3-1.38-.57-1.83-.23-3.44-1.72-4.7-2.41-1.84-4.35-2.64-4.69S67,80,67,79.4s2.4-2.75,3.09-3.55a55.94,55.94,0,0,1,4.36-5c1-.8,1.83-2.64,1.6-3s4.47-1.83,5.73-2.18,2.29-3.89,2.52-4.92A4.26,4.26,0,0,0,83,57.63c-.57-.23,1.72-.34,2.52.12s3.1-.69,4.13-.23L93.84,60l-.23,2.52L93,66.91c-3.67,1.49-4.7,4.13-3.44,4s7.1,2.52,8.71,3.67,2.17-1.72,2.63-2.64a7.64,7.64,0,0,0,0-4.24c-.46-.57,1.84-.34,2.52.23s1.38-.57,1.84-.91.68-2.64,1-3.1-1-.91-1.15-1.6-2.63-1.72-3.43-2.18a2.07,2.07,0,0,1-.58-2.52c.35-.34-.23-2.63-.69-3.32s-3.09-1.38-4-1.38-1.83-2.06-2.4-2.4a16.68,16.68,0,0,0-4.93-.46c-.8.23-2.41-2.52-3.89-1.6s-3-.92-3.67-1.38-4.13,3.32-4,5.84,1.26,5,1.83,5.16-.11,2.41-.69,3.09-2.06-.68-1.49-1.26-1.48-3.32-2.17-4.35-2.29-1.49-3.44-2l-2.06,2.29a5.94,5.94,0,0,1,.23,3.1c-.46,1.6-1.84,1.83-1.84,1.14a2,2,0,0,0-1.49-.57,158.46,158.46,0,0,0-35.86,83.3,7.61,7.61,0,0,1,1.83,2.63c.46,1.38,2.87,2.3,3.33,2.64s.57-2.64.23-3.44.57-1.14.57-.68,2.29,3.09,3,4.12,1.49,7,2.29,8.25,7.68,4,10,4.47a12.74,12.74,0,0,1,5.5,3.66c.46.69,3.44,1,4,1.38a32.44,32.44,0,0,1,2.75,2.75,4,4,0,0,1,1.14,2c0,.34,3.9,1.83,4.93,2.86a2.42,2.42,0,0,0,2.87.35c.22-.46,1,2.06,1.48,3s.46,3,.12,3.33-.8,4.24-1.49,5-2.06,6.53-1.72,7.68a8.51,8.51,0,0,0,3,3.78.9.9,0,0,1,.27,1.26.89.89,0,0,1-.38.34c-.58,0-.35,5.62,1.14,6.42S78.14,206.47,77.91,206.82Z"/><path class="cls-2" d="M85.71,42.51c1.83-.34,5-.92,5.27-1.38A4.82,4.82,0,0,0,90.86,39h.92c.69,0,2-3.9,2.63-4.82s5-2.29,6.08-2.86,3.32-2.75,4.12-3.09,2.18-2.29,2-2.64,3-2.29,4.12-2.75,1.84-1.83,1.38-1.95-6.88,3.44-13,6.88A179.25,179.25,0,0,0,79.4,43.43Z"/><path class="cls-2" d="M201.09,241c1.94-1.14,5.5-6.3,6.64-7.33s2-4.93,2.18-5.73a6.55,6.55,0,0,1,2.52-2.41c.57-.23,2.64-8.71,4.47-10.65s3.89-10.89,3.67-14.21,1.14-9.4,1.6-10.89a16.79,16.79,0,0,1,3.32-4.69,98.2,98.2,0,0,0,6.42-9.28c1.37-2.3,2.75-7.34,2.4-8.6s-3.32-2.06-3.89-1.37-3.44,1-4.35,1-3-4.93-4.24-5.85-2.41-6.64-3.21-7.67a53.56,53.56,0,0,0-3.44-4.36c-.69-.57-.8-3.55-.92-4.35s1.26.46,1.49,1.72,3.56,6,4.59,7.56,3.78,6.76,4.46,8.36,6.76.81,8.83-.11,4.47-2.52,4.58-3.09,3.21-1.95,4.13-2.64,1.6-4.35,2.17-4.93-.46-4.12-1.14-5.15-3.78-1.84-4.47-1.49-2-2.29-2.52-3.32-2.87-2.3-3.1-3a2.54,2.54,0,0,1,1-2.07c.35-.23,4.82,2.87,6.08,4.47a25.28,25.28,0,0,1,3,4.93c.23.57,3.78.69,4.58.11a1.26,1.26,0,0,1,1.78.11,1.46,1.46,0,0,1,.17.24h1l3.89-.58a7.62,7.62,0,0,1,2.3,4.13,4.44,4.44,0,0,0,1.83,2.18c.69.11,1.26,2.63,1.49,3.32a55.23,55.23,0,0,1,2.86,6,34.44,34.44,0,0,0,2.75,5.5,12.39,12.39,0,0,1,.81,3.89,2.63,2.63,0,0,0,2.29,1.84c.8-.12,2.63-5.62,3.09-7.68s1.83-3.78,2.18-3.78.69-1.15.69-1.61,2.17-.34,2.4-.91.8-4.24,1.61-4.81A32.68,32.68,0,0,1,283.7,151c.92-.35,3.55,1.83,4.12,2.86a8.66,8.66,0,0,1,.81,4c-.23.34,1.26,2.64,2.63,2.64s1.72,1.71,1.83,2.29,1.84,2.4,2.18,3.21a7.61,7.61,0,0,1,0,3.55,17.71,17.71,0,0,0,.12,4.24c.22.8,4.35,5,5.95,6.3s2.3-2.64,1.49-3.78-3.55-4-4.12-4.81-.69-4.24-.46-5.16,2.41.46,3.21,1.15a6.56,6.56,0,0,1,2.06,2.63c0,.46,5.62-2.63,5.84-6s2.07-7.22,2.18-8.13a2.41,2.41,0,0,0-1-2.18c-.46-.11.8-2.52,2.41-2.52s5.27-4.13,6.18-5.84a13.33,13.33,0,0,1,2.87-3.21,24.77,24.77,0,0,0,1.6-5.73c.23-1.61-.91-4.13-1-5a13.68,13.68,0,0,0-1.83-3.33,7,7,0,0,1-.46-3.32c.11-.34,1.6-.8,1.72-1.26s1.72-2.06,1.6-2.86.92,1,1.72,1.6,1.49,4.7,2.41,5,4.58-4.24,4.12-7.33,1-7,1.95-7.33,2.41-2.75,3.55-4.47A159.39,159.39,0,0,0,298,46.41h-.57l-1.38-.23c-2.29-.46-3.55-2.87-3.2-3.44a1.52,1.52,0,0,0,0-1c-1.27-1.15-2.53-2.29-3.9-3.33h-2.86a12.59,12.59,0,0,1-4.82-1.48c-.46-.46-2.29.45-2.4,1.48s-3.21,1.38-3.44,2.18a1.82,1.82,0,0,1-2.18.46c-.23-.46-3.21,1-4.58,1.15a20.7,20.7,0,0,0-4.7,1.6,7,7,0,0,0-2.4,2.41A7.56,7.56,0,0,1,259,48c-.57.23-.46,2.86.23,3.32s-1.38-.34-2.41-.8-1.95,1.15-2.29,1.72-1.14-.35-1.14-1.15-2.41-1.37-2.64-.8-1.95-.23-2.64-.57-3.66,2.75-4.81,3.89-6.41,2-7.33,1.61-1.95,2.29-1.15,2.52h-3.2A28.07,28.07,0,0,0,224,60.61a1.25,1.25,0,0,1-1.77-.15,1.21,1.21,0,0,1-.29-.65c0-.69-1.83-1.26-2.29-1.37S218,62,217.13,62.68s-2.06-2.87-4.36-3.56-5.72-2.75-6.76-3-3-2.29-3.55-3-3.44-1-4.35-1-3.9,1.72-4.7,2.3-1.95.45-2.41.8-3.78,3.43-5,4.47-3.55,5.38-4.24,6.53a2.78,2.78,0,0,1-2.17,1.26,2.18,2.18,0,0,0-.81,1.6c0,.46-3.78,2.41-4.24,4.13s.46,5.73.46,7.1,1.38,4.24,2.41,4.24.57,2.41.23,3.09.69,1.38.57,1.95-2.63,1.38-3.44,1.6a5.79,5.79,0,0,0-2.29,2.87c-.11.57-2.63,1-3.55,1.83a10.11,10.11,0,0,1,.69-1.83A3.1,3.1,0,0,0,169,91.2c-.34-.34-.57-4.92-1.26-6a25.71,25.71,0,0,0-2.63-3c-.34-.35.23-1.49.57-2.06s-2.18-.81-2.75-.46-1,4.92-1.26,6.18a3.88,3.88,0,0,0,1.61,3.21c.45.12.22,2.29-.58,2.41s-1.6,3.32-1.14,4.12-.58,2.18-1,2.52,3.2.12,4.92.12a4.45,4.45,0,0,1,2.87.8c-.12.12-3.21.57-3.78,1.26s-2.64,2.06-3,2.64.68,1.72,1.49,1.72,1.83,3,2.52,3.55a2.52,2.52,0,0,1,.11,2.63c-.23.46-4.47-.23-6,.12s-3.55,3.66-3.66,4.92a31.84,31.84,0,0,0,.46,5.85c.11,1,3.43,1.6,4.12,2.06s3.78,0,4.47.34,2.75-3.2,3.21-4.81,3.78-4.58,4.47-5.73,4.24-.91,5.15-1.49.46,2.75.8,4.59,3.9,1.6,3.33-.12.34-2.4.45-1.83,3.44,2,4.13,2.86.46,3-.23,3-.8,2.18,0,2.52,1.83-2.52,2.64-3,1.49-2.17,1.14-2.29.69-1.72,1.15-1.14a20.31,20.31,0,0,0-3.21-4.82c-1.49-1.49-.34-.8,2.18,1.38l1.83,2.52c.34.46.8,1.83,1.15,2.29l.45.69a18.2,18.2,0,0,1,.69,4,2.63,2.63,0,0,0,2.29,1.83,1.51,1.51,0,0,1,1.38.46c-.12.12.57,1.72,1.37,1.72s1.26-2.18.35-2.18-.69-3.21-.81-4.69.58-2.53.92-2.53,0,2.87,0,3.56a11.37,11.37,0,0,0,.8,2.86l.92.69,2,1.49c2.86-.8,6.76-.12,6.53.46s2.06.68,2.18-.23.22.11.22.68-1.83,3.21-2.17,4.36-7,.34-9.86.11-7.1.69-7.33,1.61-4.7-1.95-6.76-2.75-3.67-3.9-4-4.36.34-1.37.11-2.06-4.81-.69-6.18-.23-8.37,1.26-10,2-4.13,0-4.93-.11-2.63,2.17-3.55,2.52-2.06,3.66-2.64,7.21L154,137.61l-.8,1.6c-2.29,1.72-4.81,7.57-5.61,8.83s-1.38,9.62-1.38,12.49,2.41,8.82,3.21,10.54,4.93,5.27,6.42,6.18,6.07,1,7.56,1a4.49,4.49,0,0,0,3.78-3.21l2.18.23h1c0,1.26,3.32,2.17,4.12,2.63a6.26,6.26,0,0,0,3.56-.11c.57-.12,1.37,5.61.91,7.33s1.15,7.56,1.61,9.4,2.52,6.64,2.63,8.36-1.14,7.56-1.37,9.62,2.52,7.68,3.21,9.63a35.71,35.71,0,0,1,1.26,7.1c0,.92,3,6.88,3.66,9.28S199,242.11,201.09,241Z"/><path class="cls-2" d="M332.4,168.55c.11.45,2.06-1,3.2-1.26s1.84-3.21.92-3.44-1.95-2.64-2.64-2.87-1.83,1-1.83,2-2.06,1.26-2.52,2.06-.34,1.26,0,1.26A10.6,10.6,0,0,1,332.4,168.55Z"/><path class="cls-2" d="M330.1,185.39c.58-.23,0-3.21-1.26-3.44s-4.47,4-3.89,6.42,1.26,2.29,1.6,1.72,2.29.34,2.87.46.57-.35,0-1.26S329.53,185.62,330.1,185.39Z"/><path class="cls-2" d="M323.57,182.41c.12-1,.35-4.47.46-5.16s-1.83-2.63-2.86-3-4.13,6.53-6.42,7.79-3.09,5.5-2.52,6.41,5.38,1.49,6.19,2.18,1.72-.11,2.29-.23.34-.46.11-.57,1.61-2.06,1.95-3.32A30.72,30.72,0,0,0,323.57,182.41Z"/><path class="cls-2" d="M310.51,194c-1.72-.68-3.9.35-4,1s6.88,1.84,9.28,2.41,3.78.8,3.32.46Z"/><path class="cls-2" d="M325.06,147.58c.58-.8-.8-4.47-1.49-3.67s-.11,3,0,3.78S324.49,148.38,325.06,147.58Z"/><path class="cls-2" d="M329.19,155.6c.46-.92-.46-1.95-2.07-2.29s-1.26,4.24-.57,4.81S328.84,156.52,329.19,155.6Z"/><path class="cls-2" d="M337.32,184.24c1.84,1.26,6,.69,6.08-1.71C341.56,181.26,337.21,181.49,337.32,184.24Z"/><path class="cls-2" d="M336.29,127.41a2.66,2.66,0,0,0-.92,2.41H335c-.57,0-.69,2.41,0,2.86s2.18-1.83,3-2.4a3.87,3.87,0,0,1,2.64-.69,7.68,7.68,0,0,0,3.09-.92,2.77,2.77,0,0,0,.92-1c-.35-1.72-.81-3.44-1.15-5.27l-2.06,1.49Z"/><path class="cls-2" d="M305.58,187.11a21.24,21.24,0,0,0-4.81-5.62l-.69-1.26-.8-1.37c-.69-1.49-3-2.64-3.21-3.09s-.91,1.26-1.71.8l2.4,1.72c2.06,1.49,6.19,11.91,7.22,12.6S306.27,188.6,305.58,187.11Z"/><path class="cls-2" d="M272.7,170.27c-.57,1.14,3,3.66,3.32,3.09a7.51,7.51,0,0,0-1-4C274.3,168.66,273.39,169.12,272.7,170.27Z"/><path class="cls-2" d="M224.58,225.72c.11,1.26,2.63,2.18,3.32,1.95s2.75-3.9,3-4.93a31.71,31.71,0,0,0,.57-3.89,5.11,5.11,0,0,1,.57-1.95,7.58,7.58,0,0,0,1-2.75c.23-1.38-1.48-7.91-1.48-9.05s-1.27.57-1.61,1.72-3.55,3.55-4.35,4.47-1.49,4.23-1.15,4.81a7.34,7.34,0,0,1-.57,3.43C223.43,220.22,224.35,224.58,224.58,225.72Z"/><path class="cls-2" d="M107.13,271.1h2.18C109.54,268.69,107,269,107.13,271.1Z"/><path class="cls-2" d="M165.57,24.29a7.3,7.3,0,0,1-3.67-.8,8.81,8.81,0,0,0-4.93-.34c-1,.45-.34-2.53,1-2.75s.23-2.3-1.26-2.3-5.27-.57-6.07-.34a14.7,14.7,0,0,1-3.21-.69c-.57-.11-5.15,1.38-7.22,1.26a49,49,0,0,0-8.47.46c-1.15.23-2,2.52-1.72,3.32s-5,.81-6.65.81S113,24.75,110.68,26s-4,4.47-3.32,4.47-1.26,1.83-2.52,2.29-4.13.57-4.81,1.26.69,1.15.91,1.6,1-.34,1.84.12,3.32.57,4,.92-2.18.8-3.44.91-1,2.64,0,3.1,3.9.68,4.13.22,3.32.46,4.69.69S114.58,45.14,115,46s.46,3.32.46,4.12,2.4,2.06,2.86,1.61.34,1.14-.69,1-.34,2.75.92,3.2.34,2.18-.34,2.75-.35,2.18-1,2.87,2.64,6.42,2.53,9.39,1.83,5.39,2.52,5.39,3.09.57,3.43,1.26,1.49-.46,2-.92a28.73,28.73,0,0,0,2.18-3.2c.8-1.27,2.4-7.22,2.63-7.91s3-.23,3.67-.57a30.33,30.33,0,0,0,3-2.18c.46-.46,4.47-2.06,5.61-2.87s2.87-4.12,3.78-4.92-.45-.46-1.48-1.15a1.12,1.12,0,0,1-.23-1.83c.23-.35,3.55.46,4.58.92s3.21-1,2.41-1.61-.35-.57,0-.34.8-2,.45-2.41,3.21-3.09,2.64-5.61.92-5.16,1.95-5.16.68-2.86-.58-3.09,0-.46.46-.92a7.15,7.15,0,0,0,.69-3.44c-.23-.45,1.83-1,2.18-1.6a9.54,9.54,0,0,1,3.55-1.83C165.8,26.58,166.37,24.29,165.57,24.29Z"/><path class="cls-2" d="M186.19,26.58c-1.14-.34-3.44.92-3.09,1.61s-1.84-.92-3.32-.12-1.95,3.44-1.27,3.78,1.15,2.41,1.15,2.87,2.87.11,3.67-.46.57,2.06-.12,2.86.23,2.18,1,2.3,1.84,1.94,2.75,1.94,2.29-3.21,2.52-4.35,3.1-.23,4.36.11,1.72-4.35.34-5.15-3.09-.35-3.66-.92a4.34,4.34,0,0,0-2.18-1.14C187.91,29.79,187.34,26.93,186.19,26.58Z"/><path class="cls-2" d="M197.31,28.87a7.87,7.87,0,0,0,5.27-2.06c.57-.46-6.19-1.83-8.83-1.95s-4.58.23-4.58.81S195.13,28.53,197.31,28.87Z"/><path class="cls-2" d="M156.29,89.72c-.58-.23-.92,1.94-.81,2.75s2.18.8,3.1.57a1.85,1.85,0,0,0,1.49-1.61c0-.68-1.26-4-1.72-4S156.86,90,156.29,89.72Z"/><path class="cls-2" d="M162.93,63.71c-.46-.81-3.89-.69-4.81-.69a12.3,12.3,0,0,1-4-1.49c-.57-.57-.8,2.18-1.6,2.52s.45.8.68.57,0,1.38-.45,1.95,2.29.92,2.63,1.83a2.27,2.27,0,0,0,2.41,1.26c1-.11,3.09-1.26,3.89-1.37S163.39,64.62,162.93,63.71Z"/><path class="cls-2" d="M237.07,43.54c1.14-1.15,6.18-2.86,6.76-4.12a1.61,1.61,0,0,0-.6-2.19,1,1,0,0,0-.21-.11,1.72,1.72,0,0,0-1.26.81c-.11.22-5.84,1.49-7.56,2.4a18.93,18.93,0,0,0-4.47,2.87c-.69.68-1.95,6.41-2.29,7s1.83,2.86,2.86,3.55a5.3,5.3,0,0,0,2.87.23c.46-.12-.46-4-1-5.39S235.92,44.8,237.07,43.54Z"/><path class="cls-2" d="M231,28.76c1.84,1.83,2.87-.8,4.93-.57C235.92,24.29,230.76,25.78,231,28.76Z"/><path class="cls-2" d="M267.54,29.56c0,.69,5.16,1.26,6.76.92S274,27.84,271.78,28,267.54,28.87,267.54,29.56Z"/><path class="cls-2" d="M76.88,68.52c-.57.46,0,3.09.92,3.09s2.75-3.89,4-3.09,2.18,1,2,.69-3.9-1.95-4.36-2.3S77.46,68.06,76.88,68.52Z"/><path class="cls-2" d="M90.29,156.06c0,.46,2.29.34,2.63-.35s.12-1.26-.45-1.26A3.63,3.63,0,0,0,90.29,156.06Z"/><path class="cls-2" d="M80.09,152.28c1-.23.57,1.49.8,2.17s2.87,1.15,3.44,1.61,1.83-.8,2.86-.69-.34-3.67-2.06-3.55S82,150.21,81.58,150a18.62,18.62,0,0,1-3-1.83c-.57-.46-5-.8-6.53-.8a4.68,4.68,0,0,0-3.44,2.06c-.23.46,2.41.92,3.1.46s4.24.46,5,1.26A4.28,4.28,0,0,0,80.09,152.28Z"/><path class="cls-2" d="M75.28,156.06c0,.46,2.29.11,2.86.11s.58-.46,0-.8S75.28,155.6,75.28,156.06Z"/><path class="cls-2" d="M76.88,144.14c-.57-.23-1,.69-1,1.15a.81.81,0,0,0,.69.8C77,146.09,77.57,144.37,76.88,144.14Z"/><path class="cls-2" d="M81.81,144.48a2,2,0,0,0-1.49-.8c-.34,0-.46.69-.46,1.72S81.92,144.94,81.81,144.48Z"/><path class="cls-2" d="M85.25,149.87c.91-.46,1-1.49.46-1.49s-1.61-1.6-2.18-1.83-1,1-1,1.49a.68.68,0,0,0,.56.79h.12C83.64,148.72,84.33,150.33,85.25,149.87Z"/><path class="cls-2" d="M344.31,186.31c-.46.23-2.75.45-3.09.11s-.69.92-1.26,1.15-.23,1.37.57,1,2.75.91,4.47,2.06c.34-1.72.69-3.55.92-5.38Z"/><path class="cls-2" d="M77.91,206.82c-.23.45,2.64,3.32,3.67,4.35a29.94,29.94,0,0,1,3.9,7.33,13.25,13.25,0,0,1,0,4.7,7.71,7.71,0,0,0,.57,2.41c.11.57-.92,5.15-.57,7.1s-2.18,7.68-2.07,10.66,1.38,6.64,1.84,6.41.68,2.64-.12,3-1.95,2.64-1.37,2.75,0,2.41.11,3.33.92,7,1,8.47,2.29,5.16,2.75,6.42.92,3.55,1,3.9l.35.8a10.71,10.71,0,0,1,2.29,1c.46.34,3.89.11,5-.12s.12-1.26-.34-1.71-.92-3.21-1.49-3.44-.8-3.67-.35-4.47,2.52-2,2.75-2.64.23-3.55-.23-4,.12-4-.22-5.84,3.09-3.44,3.32-4.81,4-3,4.81-3.67,1.6-4.81,1.15-5.61,1.37-1.61,2.17-1.61A10.58,10.58,0,0,0,110,241c.22,0,1.26-1.83,1.71-2.18s1.61-4.69,2.52-5.38a7.77,7.77,0,0,0,1.72-4,10.82,10.82,0,0,1,2-3.67c.46-.69,4-2.29,4.7-2.52s1.6-6,1.83-8a47.05,47.05,0,0,1,1.38-5.5c0-.69,1.14-1.26,1.37-1.49s1-2.86,1.61-3.44,2.52-3.09,2.52-3.66a18.52,18.52,0,0,1,.68-3.21v-3.55c-.57-1.72-2.52-3.9-3-3.33s-2.64-1.49-3.79-1.94a18.66,18.66,0,0,0-4.58-.69c-.69,0-3.09-2-4.24-2.29s-3.89-.8-4.35-1.15-1.15-4.47-3.44-5.84-6.19-4.59-6.65-5.73-4.69-3.55-6.07-4.36-3.32-.91-3.55-.57-1.95-2.29-2.75-3-3.44-1.26-3.55-.68-1.84.22-2.18-.23-1.72.23-2.41.45-2.75,3.44-3.78,4.24-2.17-.68-2.86-1a6.9,6.9,0,0,0-3.78,1c-.69.46-2.18-3.43-1.84-5.27s-1.6-5.38-3.2-5.5-2-3.89-1.72-5.27-2.75-2.29-3.55-2.4-2.64,1.83-3,2.86-7.34-1.26-6.53-5.5,4.12-8.59,4.92-9.05,5.27-.69,6.3-.12a1.85,1.85,0,0,0,2.07-.22,13.85,13.85,0,0,1,4.92.45c1,.46,2.64,4.7,3.78,5.16s1.49-2.75,1.72-3.55a10.34,10.34,0,0,0-.8-3.33c-.23-.57,1.83-5.72,3.55-6.53s3.56-3.78,3.33-4.24,1.37-.91,1.71-1.14,0-4.36.58-5.27a19.77,19.77,0,0,1,4.92-3.21c1-.46,1.72-3,1.38-3.55s2.63-3,4.24-3.55,2.86.91,2.52,1,2.41-1.26,3.32-1.84,0-2.63-.69-3.21-.22-2.75.58-3,1.49-2.18,1.26-2.53,3.44.35,4.81-.68.34,2.4-.57,3.89a1.61,1.61,0,0,0,.4,2.24,1.52,1.52,0,0,0,1,.28,1.48,1.48,0,0,1,1.49,1.15c.12.34,1.49-.46,2.41,0s1.49-1.26,1.49-2.06-2.18-2.29-2.52-3.33a52.81,52.81,0,0,1-.46-7.44c0-1-1.49-2.87-1.95-2.52s-1.37-2.87-2.18-3.56a4,4,0,0,1-.91-2.75c0-.45-2.52-3.2-3.21-4.46s-1.49-1-1.6-.46-1.84.68-2.64.57-1.37-3-1.37-4-3.33-1.26-3.9-2.18-2.75-.46-3.09-1a3.65,3.65,0,0,0-2.64-.91c-.34.22-.23,8.13-.57,10.19s-2.18,4-2.87,3.9-.23,1.49.12,1.37-1.26,2.29-1.49,3.9-1.84,0-2.06-1.49-1.84-3.44-2.18-3-1.38-.57-1.83-.23-3.44-1.72-4.7-2.41-1.84-4.35-2.64-4.69S67,80,67,79.4s2.4-2.75,3.09-3.55a55.94,55.94,0,0,1,4.36-5c1-.8,1.83-2.64,1.6-3s4.47-1.83,5.73-2.18,2.29-3.89,2.52-4.92A4.26,4.26,0,0,0,83,57.63c-.57-.23,1.72-.34,2.52.12s3.1-.69,4.13-.23L93.84,60l-.23,2.52L93,66.91c-3.67,1.49-4.7,4.13-3.44,4s7.1,2.52,8.71,3.67,2.17-1.72,2.63-2.64a7.64,7.64,0,0,0,0-4.24c-.46-.57,1.84-.34,2.52.23s1.38-.57,1.84-.91.68-2.64,1-3.1-1-.91-1.15-1.6-2.63-1.72-3.43-2.18a2.07,2.07,0,0,1-.58-2.52c.35-.34-.23-2.63-.69-3.32s-3.09-1.38-4-1.38-1.83-2.06-2.4-2.4a16.68,16.68,0,0,0-4.93-.46c-.8.23-2.41-2.52-3.89-1.6s-3-.92-3.67-1.38-4.13,3.32-4,5.84,1.26,5,1.83,5.16-.11,2.41-.69,3.09-2.06-.68-1.49-1.26-1.48-3.32-2.17-4.35-2.29-1.49-3.44-2l-2.06,2.29a5.94,5.94,0,0,1,.23,3.1c-.46,1.6-1.84,1.83-1.84,1.14a2,2,0,0,0-1.49-.57l-2.06,2.64-2.06,2.63-2.06,2.87-1.84,2.52L55.8,74.13l-2.41,3.78c-.69,1-1.26,2.18-2,3.33a12.71,12.71,0,0,0-1.26,2.29l-1.94,3.55-1,2.06c-1.37,2.75-2.75,5.62-4,8.6V98l-1.71,4.36-.69,1.6-1.61,4.47-.23.69a157,157,0,0,0-4.46,15.47c-.12.34-.12.68-.23,1a157.48,157.48,0,0,0-2.87,16.84h0a7.58,7.58,0,0,1,1.84,2.64c.45,1.37,2.86,2.29,3.32,2.63s.57-2.63.23-3.44.57-1.14.57-.68,2.29,3.09,3,4.12,1.49,7,2.29,8.25,7.68,4,10,4.47a12.56,12.56,0,0,1,5.5,3.67c.46.68,3.44,1,4,1.37a32.44,32.44,0,0,1,2.75,2.75,4,4,0,0,1,1.15,2c0,.34,3.89,1.83,4.92,2.86a2.42,2.42,0,0,0,2.87.35c.23-.46,1,2.06,1.49,3s.46,3,.11,3.32-.8,4.24-1.49,5-2.06,6.53-1.72,7.68a8.51,8.51,0,0,0,3,3.78.92.92,0,0,1,.28,1.27,1,1,0,0,1-.39.33c-.58,0-.35,5.62,1.14,6.42S78.14,206.47,77.91,206.82Z"/><path class="cls-2" d="M85.71,42.51c1.83-.34,5-.92,5.27-1.38A4.82,4.82,0,0,0,90.86,39h.92c.69,0,2-3.9,2.63-4.82s5-2.29,6.08-2.86,3.32-2.75,4.12-3.09,2.18-2.29,2-2.64,3-2.29,4.12-2.75,1.84-1.83,1.38-1.95-6.88,3.44-13,6.88H99l-5.16,3.66L90.52,34,88.8,35.41l-3.9,3.32-.8.69L79.86,43.2Z"/><path class="cls-2" d="M186.65,120.31c-.69,0-.8,2.18,0,2.52s1.26-1.26,1.95-2.18v-8.82h-.12c-.91-.92-.8-.92.12-.23V57l-2.06,1.83c-1.27,1-3.56,5.38-4.24,6.53a2.73,2.73,0,0,1-2.18,1.26,2.15,2.15,0,0,0-.8,1.6c0,.46-3.78,2.41-4.24,4.13s.46,5.73.46,7.1,1.37,4.24,2.4,4.24.58,2.41.23,3.1.69,1.37.57,1.94-2.63,1.38-3.43,1.61A5.66,5.66,0,0,0,173,93.15c-.12.58-2.64,1-3.56,1.84s.58-1.38.69-1.84a3.08,3.08,0,0,0-.57-2.86c-.35-.35-.58-4.93-1.26-6a24.89,24.89,0,0,0-2.64-3c-.46-.34.23-1.49.57-2.06s-2.17-.8-2.74-.46-1,4.93-1.27,6.19a3.93,3.93,0,0,0,1.61,3.21c.46.11.23,2.29-.57,2.4s-1.61,3.33-1.15,4.13-.57,2.17-1,2.52,3.21.11,4.93.11a4.55,4.55,0,0,1,2.86.8c-.11.12-3.21.58-3.78,1.27s-2.64,2.06-3,2.63.69,1.72,1.49,1.72,1.83,3,2.52,3.55a2.51,2.51,0,0,1,.11,2.64c-.22.45-4.46-.23-5.95.11s-3.56,3.67-3.67,4.93a31.73,31.73,0,0,0,.46,5.84c.11.92,3.44,1.61,4.12,2.06s3.78,0,4.47.35,2.75-3.21,3.21-4.81,3.78-4.59,4.47-5.73,4.24-.92,5.15-1.49.46,2.75.81,4.58,3.89,1.6,3.32-.11.34-2.41.46-1.84,3.44,2,4.12,2.87S187.34,120.31,186.65,120.31Z"/><path class="cls-2" d="M188.6,131.19a10,10,0,0,0-1.72-.8c-2.06-.8-3.67-3.89-4-4.35s.34-1.38.11-2.06-4.81-.69-6.18-.23-8.37,1.26-10,1.94-4.13,0-4.93-.11-2.63,2.18-3.55,2.52-2.06,3.67-2.64,7.22l-1.26,2.4-.8,1.61c-2.29,1.72-4.81,7.56-5.61,8.82s-1.38,9.63-1.38,12.49,2.41,8.82,3.21,10.54,4.93,5.27,6.42,6.19,6.07,1,7.56,1a4.47,4.47,0,0,0,3.78-3.21l2.18.23h1c0,1.26,3.32,2.18,4.12,2.64a6.34,6.34,0,0,0,3.56-.12c.57-.11,1.37,5.62.91,7.33s1.15,7.57,1.61,9.4,2.52,6.65,2.63,8.36-1.14,7.57-1.37,9.63,2.52,7.68,3.2,9.62a35,35,0,0,1,1.27,7.11,21.05,21.05,0,0,0,1.6,4.12V131h0Z"/><path class="cls-2" d="M107.13,271.1h2.18C109.54,268.69,107,269,107.13,271.1Z"/><path class="cls-2" d="M151.13,53.05c1.15.46,3.21-1,2.41-1.6s-.35-.58,0-.35.8-2,.45-2.4,3.21-3.1,2.64-5.62,1-5.15,2-5.15.69-2.87-.57-3.1,0-.46.45-.91a7.2,7.2,0,0,0,.69-3.44c-.23-.46,1.83-1,2.18-1.61A9,9,0,0,1,164.88,27c.92-.11,1.26-2.41.46-2.29a7.41,7.41,0,0,1-3.67-.8c-.46-.46-3.89-.8-4.93-.46s-.34-2.52,1-2.75.22-2.29-1.26-2.29-5.28-.58-6.08-.35a15.29,15.29,0,0,1-3.21-.68c-.57-.12-5.15,1.37-7.21,1.26a47.1,47.1,0,0,0-8.48.46c-1.15.22-1.95,2.52-1.72,3.32s-5,.8-6.65.8-10.42,1.83-12.72,3.09-4,4.47-3.32,4.47-1.26,1.84-2.52,2.29-4.12.58-4.81,1.26.69,1.15.92,1.61,1-.46,1.83,0,3.32.57,4,.91-2.18.81-3.44.92-1,2.64,0,3.09,3.9.69,4.13.23,3.32.46,4.69.69,2.41,3.55,2.87,4.36.46,3.32.46,4.12,2.4,2.06,2.86,1.6.35,1.15-.69,1-.34,2.75.92,3.2.34,2.18-.34,2.75-.35,2.18-1,2.87,2.63,6.41,2.52,9.39,1.83,5.39,2.52,5.39,3.09.57,3.43,1.26,1.49-.46,2-.92a29.06,29.06,0,0,0,2.18-3.21c.8-1.26,2.41-7.21,2.63-7.9s3-.23,3.67-.57a30.33,30.33,0,0,0,3-2.18c.46-.46,4.47-2.06,5.61-2.87s2.87-4.12,3.79-4.92-.46-.46-1.49-1.15a1.15,1.15,0,0,1-.45-1.56,1.13,1.13,0,0,1,.22-.27C146.78,51.79,150.1,52.59,151.13,53.05Z"/><path class="cls-2" d="M186.19,26.58c-1.14-.34-3.44.92-3.09,1.61s-1.84-.92-3.32-.12-1.95,3.44-1.27,3.78,1.15,2.41,1.15,2.87,2.87.11,3.67-.46.57,2.06-.12,2.86.23,2.18,1,2.3,1.84,1.94,2.75,1.94a2.72,2.72,0,0,0,1.49-1.72V29.79h0C187.91,29.79,187.34,26.93,186.19,26.58Z"/><path class="cls-2" d="M158.69,93a1.84,1.84,0,0,0,1.49-1.61c0-.68-1.26-4-1.72-4s-1.37,2.41-2.06,2.18-.92,2-.8,2.75S157.66,93.27,158.69,93Z"/><path class="cls-2" d="M155.48,68.4a2.27,2.27,0,0,0,2.41,1.26c1-.11,3.09-1.26,3.9-1.37s1.49-3.78,1-4.58S158.92,63,158,63a12.27,12.27,0,0,1-4-1.49c-.57-.57-.8,2.18-1.6,2.52s.34.8.69.57,0,1.38-.46,1.95S155.26,67.72,155.48,68.4Z"/><path class="cls-2" d="M76.88,68.52c-.57.46,0,3.09.92,3.09s2.75-3.89,4-3.09,2.18,1,2,.69-3.9-1.95-4.36-2.3S77.46,68.06,76.88,68.52Z"/><path class="cls-2" d="M90.29,156.06c0,.46,2.29.34,2.63-.35s.12-1.26-.45-1.26A3.63,3.63,0,0,0,90.29,156.06Z"/><path class="cls-2" d="M80.09,152.28c1-.23.57,1.49.8,2.17s2.87,1.15,3.44,1.61,1.83-.8,2.86-.69-.34-3.67-2.06-3.55S82,150.21,81.58,150a18.62,18.62,0,0,1-3-1.83c-.57-.46-5-.8-6.53-.8a4.68,4.68,0,0,0-3.44,2.06c-.23.46,2.41.92,3.1.46s4.24.46,5,1.26A4.28,4.28,0,0,0,80.09,152.28Z"/><path class="cls-2" d="M75.28,156.06c0,.46,2.29.11,2.86.11s.58-.46,0-.8S75.28,155.6,75.28,156.06Z"/><path class="cls-2" d="M76.88,144.14c-.57-.23-1,.69-1,1.15a.81.81,0,0,0,.69.8C77,146.09,77.57,144.37,76.88,144.14Z"/><path class="cls-2" d="M81.81,144.48a2,2,0,0,0-1.49-.8c-.34,0-.46.69-.46,1.72S81.92,144.94,81.81,144.48Z"/><path class="cls-2" d="M85.25,149.87c.91-.46,1-1.49.46-1.49s-1.61-1.6-2.18-1.83-1,1-1,1.49a.68.68,0,0,0,.56.79h.12C83.64,148.72,84.33,150.33,85.25,149.87Z"/><path class="cls-3" d="M91,39.3c-.12-.11-.81.34-.46.57A.37.37,0,0,0,91,39.3Z"/><path class="cls-3" d="M108.62,91.89c-.11-.11-.8.35-.57.58S109,92.24,108.62,91.89Z"/><path class="cls-4" d="M107.93,46.29H19.36A19.36,19.36,0,0,0,0,65.65V278a19.36,19.36,0,0,0,19.36,19.36h88.57A19.36,19.36,0,0,0,127.3,278V65.77a19.26,19.26,0,0,0-19-19.48Z"/><path class="cls-5" d="M46.86,61.41H80.32A1.72,1.72,0,0,1,82,63.13a1.6,1.6,0,0,1-1.48,1.72,1,1,0,0,1-.24,0H46.86a1.72,1.72,0,0,1,0-3.44Z"/><path class="cls-5" d="M63.59,283.13A11.23,11.23,0,1,1,74.82,271.9,11.35,11.35,0,0,1,63.59,283.13Z"/><rect class="cls-5" x="8.25" y="84.56" width="110.57" height="163.72"/><path class="cls-6" d="M63.59,264.11a7.9,7.9,0,0,0-7.79,7.79,7.79,7.79,0,1,0,7.79-7.79Z"/><rect class="cls-7" x="14.67" y="122.37" width="97.85" height="50.31"/><rect class="cls-8" x="41.48" y="100.72" width="70.7" height="6.99"/><path class="cls-8" d="M33,104.27a9.17,9.17,0,1,1-9.17-9.17A9.17,9.17,0,0,1,33,104.27Z"/><rect class="cls-8" x="14.67" y="204.98" width="97.85" height="2.88"/><rect class="cls-8" x="14.67" y="214.95" width="97.85" height="2.88"/><rect class="cls-8" x="14.67" y="224.81" width="97.85" height="2.88"/><rect class="cls-8" x="14.67" y="234.66" width="71.04" height="2.88"/><rect class="cls-8" x="14.67" y="185.85" width="65.08" height="6.99"/><text class="cls-9" transform="translate(49.63 150.79)">Imanity</text><path class="cls-5" d="M38.13,158.09a13.59,13.59,0,0,1-1.43-2.35l-1-1.9-1.23,0c-2.66,0-4.2-1.12-5-3.5a5.11,5.11,0,0,1,1.41-5.53c1-1,1.53-1.22,3.49-1.19s2.45.23,3.53,1.23c.5.47.69.57,1,.52a1.11,1.11,0,0,1,1.16.64c.11.35-.39,1.51-.65,1.51s-.23.35-.33,1.4a5.88,5.88,0,0,1-.63,2.44c-.59,1.22-.6,1.38-.19,1.94a21.37,21.37,0,0,1,2.26,4c.12.54.1.63-.19.92s-.47.33-1.06.33a1.27,1.27,0,0,1-1.19-.45Zm1.78-.3c.14-.17.08-.38-.31-1.16A33.65,33.65,0,0,0,37.35,153c-.29-.31-.19-.84.24-1.25.91-.84,1.48-4,.92-5.12a5.72,5.72,0,0,0-2.17-2.11A3.71,3.71,0,0,0,34,144.1c-1.51,0-1.56,0-2.05.43a10,10,0,0,0-2,2.94,5.28,5.28,0,0,0-.1,1.51,4.62,4.62,0,0,0,2.5,4,3.89,3.89,0,0,0,2.18.3h1.55l.89,1.83c1,2.08,1.7,2.93,2.35,2.93a.9.9,0,0,0,.59-.2Zm-6.78-5.16a3.28,3.28,0,0,1-1.8-1.76,4.87,4.87,0,0,1-.43-3.11,3.72,3.72,0,0,1,1.67-2.35c1.34-.94,2.56-.82,4.23.4a2.36,2.36,0,0,1,1.14,1.75,4.15,4.15,0,0,1-.24,2.64,3.59,3.59,0,0,1-1.92,2.2,3.23,3.23,0,0,1-2.65.23Zm2.57-.85a3.58,3.58,0,0,0,1.65-3.32c0-1.57-.51-2.22-2.33-3-.72-.3-.75-.31-1.35-.08a3.67,3.67,0,0,0-1.81,5.17,2.54,2.54,0,0,0,1.72,1.6A3.54,3.54,0,0,0,35.7,151.78Zm-2.46-.57a1.86,1.86,0,0,1-1-1.43c-.12-.68.22-.7.47,0s.66,1,1.13,1c.29,0,.38.07.38.26a.38.38,0,0,1-.21.34C33.7,151.47,33.78,151.49,33.24,151.21Zm1.44-1.13a8,8,0,0,1-.09-1.26c0-.78,0-.81-.25-.59a.9.9,0,0,1-.49.22c-.24,0-.24,0,0-.25a3.65,3.65,0,0,0,.48-.92c.18-.47.33-.67.51-.67s.26.17.33,1.71a18,18,0,0,0,.14,1.9c0,.13-.06.22-.24.25s-.3-.05-.37-.39Zm1.39-.15c-.25-.25-.28-.39-.21-1.05.11-1,.43-1.65.85-1.65s.42.16.07.65a2.75,2.75,0,0,0-.35.94c-.08.51,0,.62.26.9s.31.37.26.42-.59.08-.88-.21Zm-3.25-2a1.23,1.23,0,0,0-.16-.68c-.28-.28.06-.46.4-.22a.88.88,0,0,1,.16,1.16C33,148.61,32.82,148.5,32.82,147.93Zm1-1.93c-.12-.2-.09-.22.53-.33.45-.08.51-.07.47.15s-.84.43-1,.18Zm5.8.34a.58.58,0,0,0-.58-.61c-.31,0-.32-.13.12,1.22,0,.17.1.16.26-.06A1.06,1.06,0,0,0,39.64,146.34Zm-21.33,6.48a5.66,5.66,0,0,1,0-2,.41.41,0,0,1,.38-.3c.26,0,.27.05.17.58a7.61,7.61,0,0,0-.12,1.18c0,.57-.22.86-.41.56Zm2.56-.53c-.29-.39-.29-.56,0-1.77a.24.24,0,0,1,.27-.14c.18,0,.23.26.24,1.17,0,1.23-.09,1.37-.55.74Zm2.21-.06a1.44,1.44,0,0,1,.56-2.15c.44-.16.52-.09.71.6s-.29,1.86-.92,1.86C23.35,152.54,23.19,152.4,23.08,152.23Zm.72-.58c.18-.38.21-.92.07-1.06s-.59.34-.59.67.13.74.27.74S23.72,151.84,23.8,151.65Zm1.9,0a2.93,2.93,0,0,1,.05-1,2.13,2.13,0,0,0,.12-.65c0-.36.34-.59.55-.38a2.15,2.15,0,0,1-.06,1.08,7.19,7.19,0,0,0-.17,1.28c0,.21-.06.35-.2.38s-.23-.1-.29-.67Zm2.68.22a1.45,1.45,0,0,0-.38-.5c-.28-.23-.28-.25-.05-.66a1.82,1.82,0,0,0,.24-.67.4.4,0,0,1,.55-.34,5.71,5.71,0,0,1-.16,2.3c-.06.08-.15,0-.2-.13Zm13.33.09c-.12-.07-.19-.5-.21-1.32,0-1,0-1.22.18-1.22s.22.27.28,1.23c.09,1.27,0,1.5-.25,1.31Zm-2-.37a1,1,0,0,1-.09-.48c0-.27-.07-.39-.23-.39s-.19-.08-.14-.31c.2-.8.45-1.33.64-1.33s.2.23.2,1.25-.11,1.53-.38,1.26Zm-21.34-3.38a1.79,1.79,0,0,1-.38-.86c-.06-.45,0-.62.39-1.13s.55-.61.87-.61.42.07.59.59a2,2,0,0,1-.46,2c-.41.44-.62.45-1,0Zm.95-.81a1.87,1.87,0,0,0,.18-1,1,1,0,0,0-.15-.42,2.81,2.81,0,0,0-.46.44c-.42.46-.54,1.14-.24,1.44S19.06,148.07,19.34,147.45Zm1.91.79a1.92,1.92,0,0,1,.32-2.45c.32-.21.37-.21.69,0s.34.33.34.94c0,.78-.45,1.77-.84,1.84a.74.74,0,0,1-.51-.32Zm.77-.75c.19-.37.23-1.17.06-1.27s-.77.77-.63,1.33.33.4.57-.06Zm1.82.47a.92.92,0,0,1-.42-.85,1.77,1.77,0,0,1,.91-1.53c.52-.2.69,0,.8,1.12.09.86.07.93-.26,1.26s-.51.44-1,0Zm.8-.45a1.91,1.91,0,0,0,0-1.35c-.08-.14-.2-.07-.47.25a1,1,0,0,0-.13,1.26c.11.19.44.1.58-.16Zm2.27.72a2,2,0,0,1-.09-.74c0-.53,0-.65-.27-.71s-.27-.08,0-.67.32-.61.65-.54a5.2,5.2,0,0,1,.14,1.38c0,1.08,0,1.37-.15,1.37a.47.47,0,0,1-.28-.09Zm14.46-.7a2.18,2.18,0,0,1,.2-2.53c.18-.12.33-.05.72.32s.48.51.4,1.16C42.55,147.55,41.88,148.09,41.37,147.53Zm.71-.57a1.19,1.19,0,0,0-.1-1.28c-.33-.3-.44-.17-.44.54,0,.95.25,1.29.54.74Zm-13.2-.4c-.16-.11-.16-.2,0-.54.39-.94,1-.88.74.07C29.47,146.62,29.23,146.78,28.88,146.56Zm-7.28-2.28a1.47,1.47,0,0,1-.09-.61c0-.33-.08-.56-.22-.64s-.2-.18,0-.72c.26-.77.56-.8.59-.06,0,.3,0,.84.06,1.19,0,.62-.13,1-.33.84ZM18.36,144a1.79,1.79,0,0,1,.1-1.77c.36-.49.64-.55,1-.19a1.71,1.71,0,0,1,0,1.91.74.74,0,0,1-1.1.05Zm.83-.44c.29-.55.08-1.6-.24-1.21a1.32,1.32,0,0,0-.29,1.16c.14.38.34.39.53.05Zm5,.45a2.37,2.37,0,0,1-.08-.61c0-.31-.06-.4-.27-.4s-.36-.25-.08-.62a1.14,1.14,0,0,0,.21-.56c0-.3.35-.53.48-.32a9.42,9.42,0,0,1,.12,1.42c0,1,0,1.31-.13,1.31a.34.34,0,0,1-.25-.22Zm2.42,0a2.18,2.18,0,0,1,0-.82c.07-.53,0-.61-.16-.61-.4,0-.44-.15-.16-.51a1.28,1.28,0,0,0,.27-.64c0-.37.11-.49.36-.39s.27,3.18,0,3.18a.34.34,0,0,1-.29-.21Zm2.44-.1a1.67,1.67,0,0,1-.17-1.51c.19-.81.47-1.18.87-1.18,1,0,1.11,1.45.15,2.41C29.4,144.13,29.25,144.18,29,143.92Zm.79-.82c.33-.53.3-1.23,0-1.3s-.51.46-.51,1.21.18.68.55.09Zm8.94.49a.63.63,0,0,1-.09-.36.61.61,0,0,0-.19-.42c-.17-.13-.17-.25,0-.79.19-.76.29-.88.53-.68s.32,2.34.06,2.34a.47.47,0,0,1-.28-.09Zm2.43-.08a6,6,0,0,1,0-1.2c0-.91.07-1,.32-1s.26.08.24.34,0,.7-.07,1.15C41.61,143.56,41.37,144,41.2,143.51Zm-9.32-.16a1.6,1.6,0,0,1,.41-2.13c.32-.17.69-.07.65.18a1.49,1.49,0,0,0,.13.55.88.88,0,0,1-.19,1.18C32.5,143.58,32.13,143.66,31.88,143.35Zm.64-.51c.2-.2.22-1.2,0-1.2s-.41.48-.41.94.11.52.38.26Zm2.57.34a2.35,2.35,0,0,1-.09-.82c0-.39-.06-.72-.13-.72s-.41.47-.41.87-.07.35-.28.35-.33-.17-.11-.83S34.62,141,35,141s.46.31.46,1.46c0,.79-.09,1-.32.76Zm1.77,0a3.47,3.47,0,0,1-.09-1c0-.8,0-.93.24-.93s.24.14.25,1-.11,1.22-.4.93Zm-18.21-3.65c0-.5-.06-.89-.14-.89a.14.14,0,0,0-.14.14c0,.07-.09.13-.21.13s-.2-.07-.12-.24.36-1,.42-1.22a.24.24,0,0,1,.23-.17c.15,0,.22.32.29,1.33a14.69,14.69,0,0,0,.16,1.56c.05.18,0,.24-.21.24s-.28-.08-.28-.88Zm2.49.33c-.37-.15-.51-.62-.41-1.46s.45-1.12,1.05-1.12c.31,0,.41.08.53.43a1.72,1.72,0,0,1-.25,1.89C21.63,140,21.59,140.05,21.14,139.86Zm.7-.71c.32-.45.28-1.28-.05-1.37s-.75.48-.61,1.22C21.28,139.53,21.54,139.59,21.84,139.15Zm2.33.45a2.32,2.32,0,0,1-.13-.7,1,1,0,0,0-.2-.66c-.26-.16.11-1.24.43-1.24s.24.15.24,1.23c0,.68,0,1.27,0,1.33s-.25.19-.35,0Zm2.37-.18a3.8,3.8,0,0,1,0-.48c0-.1-.1-.22-.25-.26-.35-.09-.35-.19,0-.82a2.36,2.36,0,0,0,.27-.88c0-.4.14-.56.36-.41a7.08,7.08,0,0,1-.17,3.16c-.1,0-.2-.14-.2-.31Zm2.28.06a2.51,2.51,0,0,1-.09-1.86,1.05,1.05,0,0,1,.49-.51c.32-.15.39-.13.63.17a2,2,0,0,1-.18,2.13C29.3,139.8,29.12,139.81,28.82,139.48Zm.87-1.4c0-.38-.06-.53-.21-.53-.35,0-.66,1.27-.38,1.55S29.69,138.61,29.69,138.08Zm6.61,1.53a9.1,9.1,0,0,1-.14-1.37c-.06-1.16,0-1.24.21-1.24s.27.1.27,1.15a7.09,7.09,0,0,0,.08,1.36c.09.24-.28.32-.42.1Zm3.93-.23a.88.88,0,0,1-.29-.95c.09-.75.41-1.26.88-1.38s.75.08,1,.73a1.31,1.31,0,0,1-.61,1.68C40.65,139.8,40.65,139.8,40.23,139.38Zm.69-.28a1.55,1.55,0,0,0,.62-1.12.44.44,0,0,0-.66-.44,1.55,1.55,0,0,0-.5,1.37C40.48,139.2,40.57,139.24,40.92,139.1Zm-6.92.4a1.3,1.3,0,0,1-.09-.58.69.69,0,0,0-.27-.66c-.26-.16-.26-.2-.07-.57a1.84,1.84,0,0,0,.2-.61c0-.12.12-.21.28-.21s.27.09.27,1.28-.09,1.58-.32,1.35Zm4.36,0a1.86,1.86,0,0,1-.09-.72,1.56,1.56,0,0,0-.15-.78,1.12,1.12,0,0,1,.17-1.08c.27-.16.36.16.43,1.41.05.93,0,1.26-.1,1.26a.43.43,0,0,1-.26-.09Zm-6.63-.88a8.77,8.77,0,0,0-.09-1.24c-.07-.46-.05-.51.21-.51s.29.07.29,1.09c0,.6,0,1.13,0,1.19s-.09.12-.21.15-.21-.1-.21-.68Z"/></g></g></g></svg>