<svg xmlns="http://www.w3.org/2000/svg" xmlns:xlink="http://www.w3.org/1999/xlink" viewBox="0 0 349.44 520.47"><defs><style>.cls-1{fill:url(#linear-gradient);}.cls-192,.cls-2{opacity:0.8;}.cls-203,.cls-3{fill:#fff;}.cls-4{fill:#fefefe;opacity:1;}.cls-10,.cls-100,.cls-101,.cls-102,.cls-103,.cls-104,.cls-105,.cls-106,.cls-107,.cls-108,.cls-109,.cls-11,.cls-110,.cls-111,.cls-112,.cls-113,.cls-114,.cls-115,.cls-116,.cls-117,.cls-118,.cls-119,.cls-12,.cls-120,.cls-121,.cls-122,.cls-123,.cls-124,.cls-125,.cls-126,.cls-127,.cls-128,.cls-129,.cls-13,.cls-130,.cls-131,.cls-132,.cls-133,.cls-134,.cls-135,.cls-136,.cls-137,.cls-138,.cls-139,.cls-14,.cls-140,.cls-141,.cls-142,.cls-143,.cls-144,.cls-145,.cls-146,.cls-147,.cls-148,.cls-149,.cls-15,.cls-150,.cls-151,.cls-152,.cls-153,.cls-154,.cls-155,.cls-156,.cls-157,.cls-158,.cls-159,.cls-16,.cls-160,.cls-161,.cls-162,.cls-163,.cls-164,.cls-165,.cls-166,.cls-167,.cls-168,.cls-169,.cls-17,.cls-170,.cls-171,.cls-172,.cls-173,.cls-174,.cls-175,.cls-176,.cls-177,.cls-178,.cls-179,.cls-18,.cls-180,.cls-181,.cls-182,.cls-183,.cls-184,.cls-185,.cls-186,.cls-187,.cls-188,.cls-189,.cls-19,.cls-190,.cls-191,.cls-192,.cls-195,.cls-197,.cls-199,.cls-20,.cls-201,.cls-203,.cls-207,.cls-21,.cls-22,.cls-23,.cls-24,.cls-25,.cls-26,.cls-27,.cls-28,.cls-29,.cls-30,.cls-31,.cls-32,.cls-33,.cls-34,.cls-35,.cls-36,.cls-37,.cls-38,.cls-39,.cls-4,.cls-40,.cls-41,.cls-42,.cls-43,.cls-44,.cls-45,.cls-46,.cls-47,.cls-48,.cls-49,.cls-5,.cls-50,.cls-51,.cls-52,.cls-53,.cls-54,.cls-55,.cls-56,.cls-57,.cls-58,.cls-59,.cls-6,.cls-60,.cls-61,.cls-62,.cls-63,.cls-64,.cls-65,.cls-66,.cls-67,.cls-68,.cls-69,.cls-7,.cls-70,.cls-71,.cls-72,.cls-73,.cls-74,.cls-75,.cls-76,.cls-77,.cls-78,.cls-79,.cls-8,.cls-80,.cls-81,.cls-82,.cls-83,.cls-84,.cls-85,.cls-86,.cls-87,.cls-88,.cls-89,.cls-9,.cls-90,.cls-91,.cls-92,.cls-93,.cls-94,.cls-95,.cls-96,.cls-97,.cls-98,.cls-99{isolation:isolate;}.cls-5{fill:#fdfdfd;opacity:1;}.cls-6{fill:#fcfcfc;opacity:1;}.cls-7{fill:#fbfbfb;opacity:1;}.cls-8{fill:#fafafa;opacity:0.99;}.cls-9{fill:#f9f9f9;opacity:0.99;}.cls-10{fill:#f8f8f8;opacity:0.99;}.cls-11{fill:#f7f7f7;opacity:0.99;}.cls-12{fill:#f6f6f6;opacity:0.99;}.cls-13{fill:#f5f5f5;opacity:0.99;}.cls-14{fill:#f4f4f4;opacity:0.99;}.cls-15{fill:#f3f3f3;opacity:0.99;}.cls-16{fill:#f2f2f2;opacity:0.99;}.cls-17{fill:#f1f1f1;opacity:0.99;}.cls-18{fill:#f0f0f0;opacity:0.98;}.cls-19{fill:#efefef;opacity:0.98;}.cls-20{fill:#eee;opacity:0.98;}.cls-21{fill:#ededed;opacity:0.98;}.cls-22{fill:#ececec;opacity:0.98;}.cls-23{fill:#ebebeb;opacity:0.98;}.cls-24{fill:#eaeaea;opacity:0.98;}.cls-25{fill:#e9e9e9;opacity:0.98;}.cls-26{fill:#e8e8e8;opacity:0.98;}.cls-27{fill:#e7e7e7;opacity:0.97;}.cls-28{fill:#e6e6e6;opacity:0.97;}.cls-29{fill:#e5e5e5;opacity:0.97;}.cls-30{fill:#e4e4e4;opacity:0.97;}.cls-31{fill:#e3e3e3;opacity:0.97;}.cls-32{fill:#e2e2e2;opacity:0.97;}.cls-33{fill:#e1e1e1;opacity:0.97;}.cls-34{fill:#e0e0e0;opacity:0.97;}.cls-35{fill:#dfdfdf;opacity:0.97;}.cls-36{fill:#dedede;opacity:0.97;}.cls-37{fill:#ddd;opacity:0.96;}.cls-38{fill:#dcdcdc;opacity:0.96;}.cls-39{fill:#dbdbdb;opacity:0.96;}.cls-40{fill:#dadada;opacity:0.96;}.cls-41{fill:#d9d9d9;opacity:0.96;}.cls-42{fill:#d8d8d8;opacity:0.96;}.cls-43{fill:#d7d7d7;opacity:0.96;}.cls-44{fill:#d6d6d6;opacity:0.96;}.cls-45{fill:#d5d5d5;opacity:0.96;}.cls-46{fill:#d4d4d4;opacity:0.95;}.cls-47{fill:#d3d3d3;opacity:0.95;}.cls-48{fill:#d2d2d2;opacity:0.95;}.cls-49{fill:#d1d1d1;opacity:0.95;}.cls-50{fill:#d0d0d0;opacity:0.95;}.cls-51{fill:#cfcfcf;opacity:0.95;}.cls-52{fill:#cecece;opacity:0.95;}.cls-53{fill:#cdcdcd;opacity:0.95;}.cls-54{fill:#ccc;opacity:0.95;}.cls-55{fill:#cbcbcb;opacity:0.94;}.cls-56{fill:#cacaca;opacity:0.94;}.cls-57{fill:#c9c9c9;opacity:0.94;}.cls-58{fill:#c8c8c8;opacity:0.94;}.cls-59{fill:#c7c7c7;opacity:0.94;}.cls-60{fill:#c6c6c6;opacity:0.94;}.cls-61{fill:#c5c5c5;opacity:0.94;}.cls-206,.cls-62{fill:#c4c4c4;}.cls-62{opacity:0.94;}.cls-63{fill:#c3c3c3;opacity:0.94;}.cls-64{fill:#c2c2c2;opacity:0.94;}.cls-65{fill:#c1c1c1;opacity:0.93;}.cls-66{fill:silver;opacity:0.93;}.cls-67{fill:#bfbfbf;opacity:0.93;}.cls-68{fill:#bebebe;opacity:0.93;}.cls-69{fill:#bdbdbd;opacity:0.93;}.cls-70{fill:#bcbcbc;opacity:0.93;}.cls-71{fill:#bbb;opacity:0.93;}.cls-72{fill:#bababa;opacity:0.93;}.cls-73{fill:#b9b9b9;opacity:0.93;}.cls-74{fill:#b8b8b8;opacity:0.92;}.cls-75{fill:#b7b7b7;opacity:0.92;}.cls-76{fill:#b6b6b6;opacity:0.92;}.cls-77{fill:#b5b5b5;opacity:0.92;}.cls-78{fill:#b4b4b4;opacity:0.92;}.cls-79{fill:#b3b3b3;opacity:0.92;}.cls-80{fill:#b2b2b2;opacity:0.92;}.cls-81{fill:#b1b1b1;opacity:0.92;}.cls-82{fill:#b0b0b0;opacity:0.92;}.cls-83{fill:#afafaf;opacity:0.92;}.cls-84{fill:#aeaeae;opacity:0.91;}.cls-85{fill:#adadad;opacity:0.91;}.cls-86{fill:#acacac;opacity:0.91;}.cls-87{fill:#ababab;opacity:0.91;}.cls-88{fill:#aaa;opacity:0.91;}.cls-89{fill:#a9a9a9;opacity:0.91;}.cls-90{fill:#a8a8a8;opacity:0.91;}.cls-91{fill:#a7a7a7;opacity:0.91;}.cls-92{fill:#a6a6a6;opacity:0.91;}.cls-93{fill:#a5a5a5;opacity:0.9;}.cls-94{fill:#a4a4a4;opacity:0.9;}.cls-95{fill:#a3a3a3;opacity:0.9;}.cls-96{fill:#a2a2a2;opacity:0.9;}.cls-97{fill:#a1a1a1;opacity:0.9;}.cls-98{fill:#a0a0a0;opacity:0.9;}.cls-99{fill:#9f9f9f;opacity:0.9;}.cls-100{fill:#9e9e9e;opacity:0.9;}.cls-101{fill:#9d9d9d;opacity:0.9;}.cls-102{fill:#9c9c9c;opacity:0.9;}.cls-103{fill:#9b9b9b;opacity:0.89;}.cls-104{fill:#9a9a9a;opacity:0.89;}.cls-105{fill:#999;opacity:0.89;}.cls-106{fill:#989898;opacity:0.89;}.cls-107{fill:#979797;opacity:0.89;}.cls-108{fill:#969696;opacity:0.89;}.cls-109{fill:#959595;opacity:0.89;}.cls-110{fill:#949494;opacity:0.89;}.cls-111{fill:#939393;opacity:0.89;}.cls-112{fill:#929292;opacity:0.88;}.cls-113{fill:#919191;opacity:0.88;}.cls-114{fill:#909090;opacity:0.88;}.cls-115{fill:#8f8f8f;opacity:0.88;}.cls-116{fill:#8e8e8e;opacity:0.88;}.cls-117{fill:#8d8d8d;opacity:0.88;}.cls-118{fill:#8c8c8c;opacity:0.88;}.cls-119{fill:#8b8b8b;opacity:0.88;}.cls-120{fill:#8a8a8a;opacity:0.88;}.cls-121{fill:#898989;opacity:0.88;}.cls-122{fill:#888;opacity:0.87;}.cls-123{fill:#878787;opacity:0.87;}.cls-124{fill:#868686;opacity:0.87;}.cls-125{fill:#858585;opacity:0.87;}.cls-126{fill:#848484;opacity:0.87;}.cls-127{fill:#838383;opacity:0.87;}.cls-128{fill:#828282;opacity:0.87;}.cls-129{fill:#818181;opacity:0.87;}.cls-130{fill:gray;opacity:0.87;}.cls-131{fill:#7f7f7f;opacity:0.86;}.cls-132{fill:#7e7e7e;opacity:0.86;}.cls-133{fill:#7d7d7d;opacity:0.86;}.cls-134{fill:#7c7c7c;opacity:0.86;}.cls-135{fill:#7b7b7b;opacity:0.86;}.cls-136{fill:#7a7a7a;opacity:0.86;}.cls-137{fill:#797979;opacity:0.86;}.cls-138{fill:#787878;opacity:0.86;}.cls-139{fill:#777;opacity:0.86;}.cls-140{fill:#767676;opacity:0.86;}.cls-141{fill:#757575;opacity:0.85;}.cls-142{fill:#747474;opacity:0.85;}.cls-143{fill:#737373;opacity:0.85;}.cls-144{fill:#727272;opacity:0.85;}.cls-145{fill:#717171;opacity:0.85;}.cls-146,.cls-211{fill:#707070;}.cls-146{opacity:0.85;}.cls-147{fill:#6f6f6f;opacity:0.85;}.cls-148{fill:#6e6e6e;opacity:0.85;}.cls-149{fill:#6d6d6d;opacity:0.85;}.cls-150{fill:#6c6c6c;opacity:0.84;}.cls-151{fill:#6b6b6b;opacity:0.84;}.cls-152{fill:#6a6a6a;opacity:0.84;}.cls-153{fill:#696969;opacity:0.84;}.cls-154{fill:#686868;opacity:0.84;}.cls-155{fill:#676767;opacity:0.84;}.cls-156{fill:#666;opacity:0.84;}.cls-157{fill:#656565;opacity:0.84;}.cls-158{fill:#646464;opacity:0.84;}.cls-159{fill:#636363;opacity:0.83;}.cls-160{fill:#626262;opacity:0.83;}.cls-161{fill:#616161;opacity:0.83;}.cls-162{fill:#606060;opacity:0.83;}.cls-163{fill:#5f5f5f;opacity:0.83;}.cls-164{fill:#5e5e5e;opacity:0.83;}.cls-165{fill:#5d5d5d;opacity:0.83;}.cls-166{fill:#5c5c5c;opacity:0.83;}.cls-167{fill:#5b5b5b;opacity:0.83;}.cls-168{fill:#5a5a5a;opacity:0.83;}.cls-169{fill:#595959;opacity:0.82;}.cls-170{fill:#585858;opacity:0.82;}.cls-171{fill:#575757;opacity:0.82;}.cls-172{fill:#565656;opacity:0.82;}.cls-173{fill:#555;opacity:0.82;}.cls-174{fill:#545454;opacity:0.82;}.cls-175{fill:#535353;opacity:0.82;}.cls-176{fill:#525252;opacity:0.82;}.cls-177{fill:#515151;opacity:0.82;}.cls-178{fill:#505050;opacity:0.81;}.cls-179{fill:#4f4f4f;opacity:0.81;}.cls-180{fill:#4e4e4e;opacity:0.81;}.cls-181{fill:#4d4d4d;opacity:0.81;}.cls-182{fill:#4c4c4c;opacity:0.81;}.cls-183{fill:#4b4b4b;opacity:0.81;}.cls-184{fill:#4a4a4a;opacity:0.81;}.cls-185{fill:#494949;opacity:0.81;}.cls-186{fill:#484848;opacity:0.81;}.cls-187{fill:#474747;opacity:0.81;}.cls-188{fill:#464646;opacity:0.8;}.cls-189{fill:#454545;opacity:0.8;}.cls-190{fill:#444;opacity:0.8;}.cls-191{fill:#434343;opacity:0.8;}.cls-192,.cls-193{fill:#424242;}.cls-194{fill:url(#linear-gradient-2);}.cls-195{opacity:0.12;}.cls-196{fill:#5f2900;}.cls-197,.cls-203{opacity:0.2;}.cls-198{fill:#e88e47;}.cls-199{opacity:0.35;}.cls-200{fill:url(#linear-gradient-3);}.cls-201{opacity:0.1;}.cls-202{fill:#361700;}.cls-204{fill:#450800;}.cls-205{fill:#b20a00;}.cls-207{opacity:0.36;}.cls-208{fill:#873a00;}.cls-209{fill:#ffa81f;}.cls-210{fill:#f69e63;}.cls-212{fill:#9ad5f0;}.cls-213{fill:url(#linear-gradient-4);}</style><linearGradient id="linear-gradient" x1="94.43" y1="646.52" x2="138.45" y2="646.52" gradientTransform="translate(0 -428)" gradientUnits="userSpaceOnUse"><stop offset="0.08" stop-color="#bdbdbd"/><stop offset="0.13" stop-color="#c2c2c2"/><stop offset="0.37" stop-color="#d7d7d7"/><stop offset="0.53" stop-color="#dfdfdf"/><stop offset="1" stop-color="#cdcdcd"/></linearGradient><linearGradient id="linear-gradient-2" x1="124.4" y1="682.03" x2="257.84" y2="682.03" xlink:href="#linear-gradient"/><linearGradient id="linear-gradient-3" x1="1855.85" y1="876.35" x2="1925.5" y2="876.35" gradientTransform="matrix(-0.98, -0.17, -0.17, 0.98, 2294.31, -264)" xlink:href="#linear-gradient"/><linearGradient id="linear-gradient-4" x1="32.13" y1="507.06" x2="56.71" y2="555.74" gradientTransform="matrix(1, -0.04, 0.04, 1, -11.88, -383.73)" gradientUnits="userSpaceOnUse"><stop offset="0" stop-color="#fff"/><stop offset="1"/></linearGradient></defs><title>nosotrosAsset 3</title><g id="Layer_2" data-name="Layer 2"><g id="Paguina_nosotros_escritorio" data-name="Paguina nosotros escritorio"><g id="nosotros"><polygon class="cls-1" points="131.98 188.56 94.43 223.83 107 248.48 138.51 202.77 131.98 188.56"/><g class="cls-2"><ellipse class="cls-3" cx="212.31" cy="506.27" rx="137.14" ry="14.2"/><ellipse class="cls-4" cx="212.31" cy="506.27" rx="136.81" ry="14.2"/><ellipse class="cls-5" cx="212.31" cy="506.27" rx="136.48" ry="14.2"/><ellipse class="cls-6" cx="212.31" cy="506.27" rx="136.16" ry="14.04"/><ellipse class="cls-7" cx="212.31" cy="506.27" rx="136" ry="14.04"/><ellipse class="cls-8" cx="212.31" cy="506.27" rx="135.67" ry="14.04"/><ellipse class="cls-9" cx="212.31" cy="506.27" rx="135.34" ry="14.04"/><ellipse class="cls-10" cx="212.31" cy="506.27" rx="135.02" ry="14.04"/><ellipse class="cls-11" cx="212.31" cy="506.27" rx="134.69" ry="13.88"/><ellipse class="cls-12" cx="212.31" cy="506.27" rx="134.36" ry="13.88"/><ellipse class="cls-13" cx="212.31" cy="506.27" rx="134.04" ry="13.88"/><ellipse class="cls-14" cx="212.31" cy="506.27" rx="133.71" ry="13.88"/><ellipse class="cls-15" cx="212.31" cy="506.27" rx="133.38" ry="13.88"/><ellipse class="cls-16" cx="212.31" cy="506.27" rx="133.06" ry="13.88"/><ellipse class="cls-17" cx="212.31" cy="506.27" rx="132.73" ry="13.71"/><ellipse class="cls-18" cx="212.31" cy="506.27" rx="132.57" ry="13.71"/><ellipse class="cls-19" cx="212.31" cy="506.27" rx="132.24" ry="13.71"/><ellipse class="cls-20" cx="212.31" cy="506.27" rx="131.91" ry="13.71"/><ellipse class="cls-21" cx="212.31" cy="506.27" rx="131.59" ry="13.71"/><ellipse class="cls-22" cx="212.31" cy="506.27" rx="131.26" ry="13.55"/><ellipse class="cls-23" cx="212.31" cy="506.27" rx="130.93" ry="13.55"/><ellipse class="cls-24" cx="212.31" cy="506.27" rx="130.61" ry="13.55"/><ellipse class="cls-25" cx="212.31" cy="506.27" rx="130.28" ry="13.55"/><ellipse class="cls-26" cx="212.31" cy="506.27" rx="129.95" ry="13.55"/><ellipse class="cls-27" cx="212.31" cy="506.27" rx="129.63" ry="13.39"/><ellipse class="cls-28" cx="212.31" cy="506.27" rx="129.3" ry="13.39"/><ellipse class="cls-29" cx="212.31" cy="506.27" rx="129.14" ry="13.39"/><ellipse class="cls-30" cx="212.31" cy="506.27" rx="128.81" ry="13.39"/><ellipse class="cls-31" cx="212.31" cy="506.27" rx="128.49" ry="13.22"/><ellipse class="cls-32" cx="212.31" cy="506.27" rx="128.16" ry="13.22"/><ellipse class="cls-33" cx="212.31" cy="506.27" rx="127.83" ry="13.22"/><ellipse class="cls-34" cx="212.31" cy="506.27" rx="127.51" ry="13.22"/><ellipse class="cls-35" cx="212.31" cy="506.27" rx="127.18" ry="13.22"/><ellipse class="cls-36" cx="212.31" cy="506.27" rx="126.85" ry="13.06"/><ellipse class="cls-37" cx="212.31" cy="506.27" rx="126.53" ry="13.06"/><ellipse class="cls-38" cx="212.31" cy="506.27" rx="126.2" ry="13.06"/><ellipse class="cls-39" cx="212.31" cy="506.27" rx="125.87" ry="13.06"/><ellipse class="cls-40" cx="212.31" cy="506.27" rx="125.55" ry="13.06"/><ellipse class="cls-41" cx="212.31" cy="506.27" rx="125.38" ry="13.06"/><ellipse class="cls-42" cx="212.31" cy="506.27" rx="125.06" ry="12.9"/><ellipse class="cls-43" cx="212.31" cy="506.27" rx="124.73" ry="12.9"/><ellipse class="cls-44" cx="212.31" cy="506.27" rx="124.4" ry="12.9"/><ellipse class="cls-45" cx="212.31" cy="506.27" rx="124.08" ry="12.9"/><ellipse class="cls-46" cx="212.31" cy="506.27" rx="123.75" ry="12.9"/><ellipse class="cls-47" cx="212.31" cy="506.27" rx="123.42" ry="12.73"/><ellipse class="cls-48" cx="212.31" cy="506.27" rx="123.1" ry="12.73"/><ellipse class="cls-49" cx="212.31" cy="506.27" rx="122.77" ry="12.73"/><ellipse class="cls-50" cx="212.31" cy="506.27" rx="122.44" ry="12.73"/><ellipse class="cls-51" cx="212.31" cy="506.27" rx="122.12" ry="12.73"/><ellipse class="cls-52" cx="212.31" cy="506.27" rx="121.95" ry="12.57"/><ellipse class="cls-53" cx="212.31" cy="506.27" rx="121.63" ry="12.57"/><ellipse class="cls-54" cx="212.31" cy="506.27" rx="121.3" ry="12.57"/><ellipse class="cls-55" cx="212.31" cy="506.27" rx="120.98" ry="12.57"/><ellipse class="cls-56" cx="212.31" cy="506.27" rx="120.65" ry="12.57"/><ellipse class="cls-57" cx="212.31" cy="506.27" rx="120.32" ry="12.41"/><ellipse class="cls-58" cx="212.31" cy="506.27" rx="120" ry="12.41"/><ellipse class="cls-59" cx="212.31" cy="506.27" rx="119.67" ry="12.41"/><ellipse class="cls-60" cx="212.31" cy="506.27" rx="119.34" ry="12.41"/><path class="cls-61" d="M331.32,506.27c0,6.85-53.38,12.41-119,12.41s-119-5.56-119-12.41,53.39-12.41,119-12.41C278.1,493.86,331.32,499.41,331.32,506.27Z"/><ellipse class="cls-62" cx="212.31" cy="506.27" rx="118.69" ry="12.24"/><ellipse class="cls-63" cx="212.31" cy="506.27" rx="118.53" ry="12.24"/><ellipse class="cls-64" cx="212.31" cy="506.27" rx="118.2" ry="12.24"/><ellipse class="cls-65" cx="212.31" cy="506.27" rx="117.87" ry="12.24"/><ellipse class="cls-66" cx="212.31" cy="506.27" rx="117.55" ry="12.24"/><ellipse class="cls-67" cx="212.31" cy="506.27" rx="117.22" ry="12.08"/><ellipse class="cls-68" cx="212.31" cy="506.27" rx="116.89" ry="12.08"/><ellipse class="cls-69" cx="212.31" cy="506.27" rx="116.57" ry="12.08"/><ellipse class="cls-70" cx="212.31" cy="506.27" rx="116.24" ry="12.08"/><ellipse class="cls-71" cx="212.31" cy="506.27" rx="115.91" ry="12.08"/><ellipse class="cls-72" cx="212.31" cy="506.27" rx="115.59" ry="11.92"/><ellipse class="cls-73" cx="212.31" cy="506.27" rx="115.26" ry="11.92"/><ellipse class="cls-74" cx="212.31" cy="506.27" rx="114.93" ry="11.92"/><ellipse class="cls-75" cx="212.31" cy="506.27" rx="114.77" ry="11.92"/><ellipse class="cls-76" cx="212.31" cy="506.27" rx="114.44" ry="11.92"/><ellipse class="cls-77" cx="212.31" cy="506.27" rx="114.12" ry="11.75"/><ellipse class="cls-78" cx="212.31" cy="506.27" rx="113.79" ry="11.75"/><ellipse class="cls-79" cx="212.31" cy="506.27" rx="113.47" ry="11.75"/><ellipse class="cls-80" cx="212.31" cy="506.27" rx="113.14" ry="11.75"/><ellipse class="cls-81" cx="212.31" cy="506.27" rx="112.81" ry="11.75"/><path class="cls-82" d="M324.79,506.27c0,6.53-50.44,11.59-112.48,11.59S99.82,512.63,99.82,506.27c0-6.53,50.28-11.59,112.49-11.59C274.51,494.51,324.79,499.74,324.79,506.27Z"/><ellipse class="cls-83" cx="212.31" cy="506.27" rx="112.16" ry="11.59"/><ellipse class="cls-84" cx="212.31" cy="506.27" rx="111.83" ry="11.59"/><ellipse class="cls-85" cx="212.31" cy="506.27" rx="111.51" ry="11.59"/><path class="cls-86" d="M323.65,506.27c0,6.36-49.79,11.59-111.34,11.59s-111.18-5.39-111.18-11.59,49.79-11.59,111.34-11.59S323.65,499.74,323.65,506.27Z"/><path class="cls-87" d="M323.32,506.27c0,6.36-49.63,11.43-111,11.43-61.23,0-111-5.07-111-11.43s49.63-11.43,111-11.43S323.32,499.9,323.32,506.27Z"/><ellipse class="cls-88" cx="212.31" cy="506.27" rx="110.69" ry="11.43"/><ellipse class="cls-89" cx="212.31" cy="506.27" rx="110.36" ry="11.43"/><ellipse class="cls-90" cx="212.31" cy="506.27" rx="110.04" ry="11.43"/><ellipse class="cls-91" cx="212.31" cy="506.27" rx="109.71" ry="11.43"/><ellipse class="cls-92" cx="212.31" cy="506.27" rx="109.38" ry="11.26"/><ellipse class="cls-93" cx="212.31" cy="506.27" rx="109.06" ry="11.26"/><ellipse class="cls-94" cx="212.31" cy="506.27" rx="108.73" ry="11.26"/><ellipse class="cls-95" cx="212.31" cy="506.27" rx="108.4" ry="11.26"/><path class="cls-96" d="M320.55,506.27c0,6.2-48.49,11.26-108.08,11.26-59.75,0-108.08-5.06-108.08-11.26S152.88,495,212.47,495,320.55,500.06,320.55,506.27Z"/><path class="cls-97" d="M320.22,506.27c0,6.2-48.32,11.1-107.91,11.1s-107.92-5.06-107.92-11.1S152.72,495,212.31,495,320.22,500.06,320.22,506.27Z"/><ellipse class="cls-98" cx="212.31" cy="506.27" rx="107.59" ry="11.1"/><ellipse class="cls-99" cx="212.31" cy="506.27" rx="107.26" ry="11.1"/><ellipse class="cls-100" cx="212.31" cy="506.27" rx="106.94" ry="11.1"/><ellipse class="cls-101" cx="212.31" cy="506.27" rx="106.61" ry="11.1"/><ellipse class="cls-102" cx="212.31" cy="506.27" rx="106.28" ry="11.1"/><ellipse class="cls-103" cx="212.31" cy="506.27" rx="105.96" ry="10.94"/><ellipse class="cls-104" cx="212.31" cy="506.27" rx="105.63" ry="10.94"/><ellipse class="cls-105" cx="212.31" cy="506.27" rx="105.3" ry="10.94"/><ellipse class="cls-106" cx="212.31" cy="506.27" rx="104.98" ry="10.94"/><path class="cls-107" d="M317.12,506.27c0,6-46.86,10.77-104.65,10.77s-104.65-4.89-104.65-10.77c0-6,46.86-10.78,104.65-10.78C270.1,495.33,317.12,500.23,317.12,506.27Z"/><ellipse class="cls-108" cx="212.31" cy="506.27" rx="104.32" ry="10.78"/><ellipse class="cls-109" cx="212.31" cy="506.27" rx="104.16" ry="10.78"/><path class="cls-110" d="M316.14,506.27c0,5.88-46.53,10.77-103.83,10.77s-103.84-4.89-103.84-10.77S155,495.49,212.31,495.49,316.14,500.23,316.14,506.27Z"/><path class="cls-111" d="M315.81,506.27c0,5.88-46.36,10.77-103.5,10.77S108.8,512.31,108.8,506.27s46.37-10.78,103.51-10.78S315.81,500.23,315.81,506.27Z"/><path class="cls-112" d="M315.49,506.27c0,5.88-46.21,10.61-103.18,10.61s-103.18-4.73-103.18-10.61,46.2-10.61,103.18-10.61S315.49,500.23,315.49,506.27Z"/><ellipse class="cls-113" cx="212.31" cy="506.27" rx="102.85" ry="10.61"/><ellipse class="cls-114" cx="212.31" cy="506.27" rx="102.53" ry="10.61"/><ellipse class="cls-115" cx="212.31" cy="506.27" rx="102.2" ry="10.61"/><ellipse class="cls-116" cx="212.31" cy="506.27" rx="101.87" ry="10.61"/><path class="cls-117" d="M313.85,506.27c0,5.88-45.55,10.61-101.54,10.61s-101.55-4.73-101.55-10.61,45.55-10.61,101.55-10.61C268.47,495.66,313.85,500.39,313.85,506.27Z"/><ellipse class="cls-118" cx="212.31" cy="506.27" rx="101.22" ry="10.45"/><ellipse class="cls-119" cx="212.31" cy="506.27" rx="100.89" ry="10.45"/><ellipse class="cls-120" cx="212.31" cy="506.27" rx="100.73" ry="10.45"/><path class="cls-121" d="M312.71,506.27c0,5.71-44.9,10.45-100.4,10.45C157,516.72,111.9,512,111.9,506.27s44.9-10.45,100.41-10.45S312.71,500.39,312.71,506.27Z"/><path class="cls-122" d="M312.38,506.27c0,5.71-44.73,10.45-100.07,10.45s-100.08-4.57-100.08-10.45S157,495.82,212.31,495.82C267.49,495.82,312.38,500.39,312.38,506.27Z"/><path class="cls-123" d="M312.06,506.27c0,5.71-44.73,10.28-99.75,10.28s-99.75-4.57-99.75-10.28S157.12,496,212.31,496C267.33,495.82,312.06,500.55,312.06,506.27Z"/><ellipse class="cls-124" cx="212.31" cy="506.27" rx="99.43" ry="10.29"/><ellipse class="cls-125" cx="212.31" cy="506.27" rx="99.1" ry="10.29"/><ellipse class="cls-126" cx="212.31" cy="506.27" rx="98.77" ry="10.29"/><ellipse class="cls-127" cx="212.31" cy="506.27" rx="98.45" ry="10.29"/><path class="cls-128" d="M310.43,506.27c0,5.55-43.92,10.12-98.12,10.12s-98.12-4.57-98.12-10.12,43.91-10.12,98.12-10.12C266.51,496,310.43,500.55,310.43,506.27Z"/><ellipse class="cls-129" cx="212.31" cy="506.27" rx="97.79" ry="10.12"/><ellipse class="cls-130" cx="212.31" cy="506.27" rx="97.47" ry="10.12"/><path class="cls-131" d="M309.61,506.27c0,5.55-43.59,10.12-97.3,10.12S115,511.82,115,506.27s43.59-10.12,97.31-10.12S309.61,500.55,309.61,506.27Z"/><path class="cls-132" d="M309.28,506.27c0,5.55-43.42,10-97,10s-97-4.57-97-10,43.43-10,97-10C265.86,496.15,309.28,500.72,309.28,506.27Z"/><path class="cls-133" d="M309,506.27c0,5.55-43.27,10-96.65,10s-96.65-4.41-96.65-10,43.26-10,96.65-10C265.69,496.15,309,500.72,309,506.27Z"/><ellipse class="cls-134" cx="212.31" cy="506.27" rx="96.32" ry="9.96"/><path class="cls-135" d="M308.3,506.27c0,5.55-42.93,10-96,10s-96-4.41-96-10,42.94-10,96-10C265.37,496.15,308.3,500.72,308.3,506.27Z"/><path class="cls-136" d="M308,506.27c0,5.55-42.78,10-95.67,10s-95.67-4.41-95.67-10,42.77-10,95.67-10S308,500.72,308,506.27Z"/><path class="cls-137" d="M307.65,506.27c0,5.39-42.61,9.79-95.34,9.79S117,511.66,117,506.27c0-5.55,42.78-9.8,95.35-9.8C265,496.31,307.65,500.72,307.65,506.27Z"/><path class="cls-138" d="M307.32,506.27c0,5.39-42.61,9.79-95,9.79s-95-4.4-95-9.79,42.61-9.8,95-9.8S307.32,500.72,307.32,506.27Z"/><ellipse class="cls-139" cx="212.31" cy="506.27" rx="94.69" ry="9.8"/><ellipse class="cls-140" cx="212.31" cy="506.27" rx="94.36" ry="9.8"/><ellipse class="cls-141" cx="212.31" cy="506.27" rx="94.04" ry="9.8"/><path class="cls-142" d="M306.18,506.27c0,5.39-42,9.79-93.71,9.79s-93.71-4.4-93.71-9.79,42-9.8,93.71-9.8S306.18,500.88,306.18,506.27Z"/><path class="cls-143" d="M305.85,506.27c0,5.39-41.79,9.63-93.54,9.63s-93.55-4.41-93.55-9.63c0-5.39,41.79-9.63,93.55-9.63C263.9,496.47,305.85,500.88,305.85,506.27Z"/><ellipse class="cls-144" cx="212.31" cy="506.27" rx="93.22" ry="9.63"/><path class="cls-145" d="M305.2,506.27c0,5.39-41.63,9.63-92.89,9.63s-92.9-4.24-92.9-9.63,41.63-9.63,92.9-9.63S305.2,500.88,305.2,506.27Z"/><path class="cls-146" d="M304.87,506.27c0,5.39-41.46,9.63-92.56,9.63s-92.57-4.24-92.57-9.63,41.47-9.63,92.57-9.63S304.87,500.88,304.87,506.27Z"/><path class="cls-147" d="M304.55,506.27c0,5.22-41.31,9.63-92.24,9.63s-92.25-4.24-92.25-9.63c0-5.23,41.31-9.63,92.25-9.63S304.55,500.88,304.55,506.27Z"/><path class="cls-148" d="M304.22,506.27c0,5.22-41.14,9.47-91.91,9.47s-91.92-4.25-91.92-9.47,41.14-9.47,91.92-9.47C263.08,496.64,304.22,500.88,304.22,506.27Z"/><ellipse class="cls-149" cx="212.31" cy="506.27" rx="91.59" ry="9.47"/><ellipse class="cls-150" cx="212.31" cy="506.27" rx="91.26" ry="9.47"/><ellipse class="cls-151" cx="212.31" cy="506.27" rx="90.94" ry="9.47"/><path class="cls-152" d="M302.92,506.27c0,5.22-40.66,9.47-90.61,9.47s-90.61-4.25-90.61-9.47,40.65-9.47,90.61-9.47C262.43,496.8,302.92,501,302.92,506.27Z"/><path class="cls-153" d="M302.75,506.27c0,5.22-40.49,9.3-90.28,9.3s-90.28-4.24-90.28-9.3c0-5.23,40.49-9.31,90.28-9.31C262.26,496.8,302.75,501,302.75,506.27Z"/><ellipse class="cls-154" cx="212.31" cy="506.27" rx="90.12" ry="9.31"/><ellipse class="cls-155" cx="212.31" cy="506.27" rx="89.79" ry="9.31"/><path class="cls-156" d="M301.77,506.27c0,5.06-40,9.3-89.46,9.3s-89.47-4.08-89.47-9.3c0-5.06,40-9.31,89.47-9.31S301.77,501,301.77,506.27Z"/><path class="cls-157" d="M301.45,506.27c0,5.06-39.84,9.3-89.14,9.3s-89.14-4.08-89.14-9.3S163,497,212.31,497,301.45,501,301.45,506.27Z"/><path class="cls-158" d="M301.12,506.27c0,5.06-39.84,9.14-88.81,9.14s-88.82-4.08-88.82-9.14,39.68-9.14,88.82-9.14S301.12,501,301.12,506.27Z"/><ellipse class="cls-159" cx="212.31" cy="506.27" rx="88.49" ry="9.14"/><path class="cls-160" d="M300.47,506.27c0,5.06-39.51,9.14-88.16,9.14s-88.16-4.08-88.16-9.14,39.51-9.14,88.16-9.14S300.47,501,300.47,506.27Z"/><path class="cls-161" d="M300.14,506.27c0,5.06-39.35,9.14-87.83,9.14s-87.84-4.08-87.84-9.14,39.35-9.14,87.84-9.14S300.14,501.21,300.14,506.27Z"/><path class="cls-162" d="M299.81,506.27c0,5.06-39.18,9.14-87.5,9.14s-87.51-4.08-87.51-9.14,39.18-9.14,87.51-9.14S299.81,501.21,299.81,506.27Z"/><path class="cls-163" d="M299.49,506.27c0,5.06-39,9-87.18,9s-87.18-4.08-87.18-9,39-9,87.18-9C260.47,497.13,299.49,501.21,299.49,506.27Z"/><ellipse class="cls-164" cx="212.31" cy="506.27" rx="86.85" ry="8.98"/><ellipse class="cls-165" cx="212.31" cy="506.27" rx="86.69" ry="8.98"/><path class="cls-166" d="M298.67,506.27c0,4.9-38.69,9-86.36,9s-86.37-4.08-86.37-9,38.69-9,86.37-9S298.67,501.21,298.67,506.27Z"/><path class="cls-167" d="M298.34,506.27c0,4.9-38.52,9-86,9s-86-3.92-86-9,38.53-9,86-9S298.34,501.21,298.34,506.27Z"/><path class="cls-168" d="M298,506.27c0,4.9-38.37,8.81-85.71,8.81s-85.71-3.91-85.71-8.81,38.36-8.82,85.71-8.82C259.65,497.29,298,501.21,298,506.27Z"/><path class="cls-169" d="M297.69,506.27c0,4.9-38.2,8.81-85.38,8.81s-85.39-3.91-85.39-8.81,38.2-8.82,85.39-8.82S297.69,501.37,297.69,506.27Z"/><path class="cls-170" d="M297.36,506.27c0,4.9-38,8.81-85.05,8.81s-85.06-3.91-85.06-8.81,38-8.82,85.06-8.82C259.33,497.29,297.36,501.37,297.36,506.27Z"/><path class="cls-171" d="M297,506.27c0,4.9-37.88,8.81-84.73,8.81s-84.74-3.91-84.74-8.81,37.88-8.82,84.74-8.82S297,501.37,297,506.27Z"/><path class="cls-172" d="M296.71,506.27c0,4.9-37.87,8.81-84.4,8.81s-84.41-3.91-84.41-8.81,37.88-8.82,84.41-8.82C259,497.45,296.71,501.37,296.71,506.27Z"/><path class="cls-173" d="M296.39,506.27c0,4.9-37.72,8.65-84.08,8.65s-84.08-3.92-84.08-8.65c0-4.9,37.71-8.65,84.08-8.65C258.84,497.45,296.39,501.37,296.39,506.27Z"/><path class="cls-174" d="M296.06,506.27c0,4.73-37.55,8.65-83.75,8.65s-83.76-3.92-83.76-8.65,37.55-8.65,83.76-8.65C258.67,497.45,296.06,501.37,296.06,506.27Z"/><ellipse class="cls-175" cx="212.31" cy="506.27" rx="83.43" ry="8.65"/><ellipse class="cls-176" cx="212.31" cy="506.27" rx="83.1" ry="8.65"/><path class="cls-177" d="M295.24,506.27c0,4.73-37.06,8.65-82.93,8.65-45.72,0-82.94-3.92-82.94-8.65s37.06-8.65,82.94-8.65C258,497.62,295.24,501.37,295.24,506.27Z"/><path class="cls-178" d="M294.92,506.27c0,4.73-36.9,8.49-82.61,8.49S129.7,511,129.7,506.27s36.89-8.49,82.61-8.49C257.86,497.62,294.92,501.53,294.92,506.27Z"/><path class="cls-179" d="M294.59,506.27c0,4.73-36.9,8.49-82.28,8.49S130,511,130,506.27s36.9-8.49,82.29-8.49C257.69,497.62,294.59,501.53,294.59,506.27Z"/><path class="cls-180" d="M294.26,506.27c0,4.73-36.73,8.49-81.95,8.49s-82-3.76-82-8.49,36.73-8.49,82-8.49C257.53,497.62,294.26,501.53,294.26,506.27Z"/><path class="cls-181" d="M293.94,506.27c0,4.73-36.57,8.49-81.63,8.49s-81.63-3.76-81.63-8.49,36.57-8.49,81.63-8.49S293.94,501.53,293.94,506.27Z"/><path class="cls-182" d="M293.61,506.27c0,4.73-36.41,8.49-81.3,8.49S131,511,131,506.27s36.41-8.49,81.31-8.49S293.61,501.53,293.61,506.27Z"/><path class="cls-183" d="M293.28,506.27c0,4.57-36.24,8.32-81,8.32s-81-3.75-81-8.32,36.24-8.33,81-8.33C257,497.78,293.28,501.53,293.28,506.27Z"/><path class="cls-184" d="M293,506.27c0,4.57-36.08,8.32-80.65,8.32s-80.65-3.75-80.65-8.32,36.08-8.33,80.65-8.33C256.88,497.78,293,501.53,293,506.27Z"/><path class="cls-185" d="M292.63,506.27c0,4.57-35.92,8.32-80.32,8.32S132,510.84,132,506.27s35.92-8.33,80.33-8.33C256.71,497.78,292.63,501.53,292.63,506.27Z"/><path class="cls-186" d="M292.3,506.27c0,4.57-35.91,8.32-80,8.32-44.25,0-80-3.75-80-8.32s35.92-8.33,80-8.33C256.55,497.94,292.3,501.53,292.3,506.27Z"/><path class="cls-187" d="M292.14,506.27c0,4.57-35.75,8.32-79.67,8.32s-79.67-3.75-79.67-8.32,35.75-8.33,79.67-8.33S292.14,501.7,292.14,506.27Z"/><path class="cls-188" d="M291.81,506.27c0,4.57-35.59,8.16-79.5,8.16s-79.51-3.75-79.51-8.16c0-4.57,35.59-8.17,79.51-8.17C256.22,497.94,291.81,501.7,291.81,506.27Z"/><path class="cls-189" d="M291.49,506.27c0,4.57-35.43,8.16-79.18,8.16s-79.18-3.75-79.18-8.16c0-4.57,35.42-8.17,79.18-8.17C256.06,497.94,291.49,501.7,291.49,506.27Z"/><ellipse class="cls-190" cx="212.31" cy="506.27" rx="78.85" ry="8.16"/><path class="cls-191" d="M290.83,506.27c0,4.57-35.1,8.16-78.52,8.16s-78.53-3.59-78.53-8.16,35.1-8.17,78.53-8.17S290.83,501.7,290.83,506.27Z"/><path class="cls-192" d="M290.51,506.27c0,4.41-34.94,8.16-78.2,8.16s-78.2-3.59-78.2-8.16,34.93-8.17,78.2-8.17S290.51,501.7,290.51,506.27Z"/></g><path class="cls-193" d="M169.86,359.82l23.84,123.1L177,482.11l-10.28-62.7c-5.39-25.79-27.92-70.2-27.92-70.2Z"/><path class="cls-193" d="M209.2,361.29,227,487.82l15.67-5.71-8.32-62.86c-2.29-26.28,0-64.81,0-64.81Z"/><path class="cls-194" d="M129.7,178.93c-2.13,22.7-5.88,132.08-5.23,133.22l117.55,17c-.16-4.41,17.63-135,15.67-142.52l-61.22,17.14Z"/><polygon class="cls-195" points="155.82 104.65 191.25 105.95 191.41 96.32 153.86 97.63 155.82 104.65"/><polygon class="cls-196" points="157.13 102.04 192.55 103.34 192.55 93.71 155 95.02 157.13 102.04"/><polygon class="cls-195" points="239.41 115.91 207.57 105.79 210.35 97.3 243.33 110.36 239.41 115.91"/><polygon class="cls-196" points="237.78 113.3 206.1 103.18 208.72 94.69 241.69 107.75 237.78 113.3"/><path class="cls-193" d="M124.47,312.15s-.32,29.39,9.47,37.72c10,8.32,66.45,30.2,99.1,7.18,7-6,10-21.06,9.14-30Z"/><path class="cls-197" d="M182.76,121.14c-.49,5.06-3.6,8.81-6.7,8.49s-5.22-4.74-4.57-9.63c.49-5.07,3.59-8.82,6.7-8.49C181.12,111.83,183.25,116.08,182.76,121.14Z"/><ellipse class="cls-197" cx="214.73" cy="123.92" rx="9.14" ry="5.39" transform="translate(68.1 323.83) rotate(-83.73)"/><path d="M180.8,119.34c-.49,4.25-2.45,7.35-4.41,7.19s-3.27-3.76-2.78-8,2.45-7.35,4.41-7.19C180,111.67,181.29,115.26,180.8,119.34Z"/><path d="M218.51,122.93c-.49,4.25-2.45,7.35-4.41,7.19s-3.1-3.76-2.77-8c.49-4.25,2.45-7.35,4.41-7.19S219,118.69,218.51,122.93Z"/><path class="cls-196" d="M178.35,479.66l-25,7.83s-19.75-3.1-24,8c-2.77,7.35-3.43,10-3.43,10,19.59,0,70.37-.33,70.37-.33.32-6.36-1.8-23.67-1.8-23.67Z"/><path class="cls-196" d="M242.35,479.66l25,7.83s19.75-3.1,24,8c2.62,7.35,3.43,10,3.43,10-19.59,0-70.36-.33-70.36-.33-.33-6.36,1.79-23.67,1.79-23.67Z"/><polygon class="cls-198" points="221.61 318.36 229.12 339.25 233.37 347.42 276.3 332.07 286.43 322.76 274.02 299.75 274.02 299.75 274.02 299.75 272.55 297.13 267.81 297.79 245.94 289.62 244.96 301.54 221.61 318.36"/><path class="cls-199" d="M274,299.74h0l-1.47-2.61-4.74.66L259,295.17c1.47,4.08,10.28,27.76,15.18,37.55l2.12-.81,5.56-5.06c1.46-1.8,2.77-3.6,4.08-5.23Z"/><path class="cls-200" d="M256.39,199c-.17,2.62-.33,6.53-.82,11.27,42.28,31.18,29.39,56.65,6.37,82.61,0,0,11.43,31.18,16.49,40.16C357.93,274,274.84,211.58,256.39,199Z"/><path class="cls-201" d="M263.73,91.75c0-11.26-.81-20.08-2.28-25.79-7-.33-13.88-.49-20.9-.82-1.14,0-2.29-.16-3.59-.16-23.18-1-46.53-2-69.71-2.78-2.29,0-4.41-.16-6.7-.32l-25-1a192.23,192.23,0,0,0-2.93,23.34c-.82,9.8-1.31,21.39-2,34.29,3.59-4.25,5.38-16.17,5.87-18.62,1.8-9.14,3.27-18.44,9.47-25.79,12.74-14.86,21.72-1.47,33.14,6.86S204.31,94,218.51,93.55a67.81,67.81,0,0,0,20.57-4.08c3.76-1.31,10.45-6.53,14.69-5.23,5.88,1.8,5.72,12.57,6.21,17.31.32,3.26-1,15.34,2.12,17.3.33.17.49.33.82.49C263.57,109.22,263.9,99.91,263.73,91.75Z"/><path class="cls-196" d="M273.86,81.3a72.41,72.41,0,0,1-2.62,19.59c-1.14,4.25-3.43,13.72-7.67,15.84-2.29-4.24-.49-9.63-1-14.2-.33-4.57-.82-10.13-2.94-14.37-4.57-8.82-13.55-15.18-9.79-26,2.77-7.83,11.26-6.2,16.65-1.47C272.06,65.79,273.69,74.28,273.86,81.3Z"/><path class="cls-202" d="M271.9,69.06a19,19,0,0,0-5.39-8.33,15.58,15.58,0,0,0-4.9-3.1c-5.39,3.27-9.47,9.63-11.26,15.84,2.28,5.06,6.53,9.47,9.3,14.69,2.29,4.24,2.61,9.63,2.94,14.37.33,4.4-1.31,9.79.82,13.87,4.73-7,3.75-21.22,2.12-27.59-1.14-4.4-3.1-7.83-1.14-12.4A17.12,17.12,0,0,1,271.9,69.06Z"/><path class="cls-196" d="M154.19,34.61c-3.43,5.55-4.58,13.06-2.13,19.1,2.62,6.53,9.47,8,15.35,10.61a82.42,82.42,0,0,1,17.47,10.45c5.71,4.57,11.43,9.47,18.61,11.59,10.78,3.27,22.53,2.94,33.47.82,27.59-5.39,45.87-46.53,28.57-71,2,13.39-6.37,15.84-15.84,21.88C259.33,27.26,252,6.2,238.43,0c16.81,37.55-26.61,30.2-47.84,27.59C178.51,26.28,161.7,22.69,154.19,34.61Z"/><path class="cls-196" d="M139.33,42.28a19.72,19.72,0,0,1,10.61,2.13c3.92,2,8,3.75,11.27,6.53,2.12,1.79,7.18,7.83,6.36,11.1-.65,2.45-2.94,1.3-5.06,1.14-3.92-.16-8.49,0-12.08,1.63-12.08,5.88-15.35,21.88-17.3,33.8-.49,2.61-.33,6.2-2.29,8.32-5.22-3.75-5.06-15.67-6.2-21.55-2.29-12.08-2.78-28.73,5.71-38.69A13.21,13.21,0,0,1,139.33,42.28Z"/><path class="cls-202" d="M265.37,16.49a23.55,23.55,0,0,1,.32,4.57c1.15,4.74,2.45,9.31,1.8,14.69a59.87,59.87,0,0,1-6.21,19.43C257,63,251.33,71.34,242.67,74.94c-9.79,4.08-18.28,6-28.73,3.59-10-2.29-18.12-7.51-27.43-11.59-9.14-4.09-18-11.6-28.24-10.78a17.79,17.79,0,0,0-4.08.82c3.26,3.92,8.65,5.39,13.38,7.51A82.42,82.42,0,0,1,185,74.94c5.72,4.57,11.43,9.47,18.61,11.59,10.78,3.26,22.53,2.94,33.47.81C264.39,82,288.06,37.71,265.37,16.49Z"/><path class="cls-202" d="M158.1,56.16c-8.32.65-18.77,6.86-22.53,14.53-5.38,10.78-3.42,22.53-3.42,34.12.65-2,.65-4.41,1.14-6.2,2-11.76,5.22-27.92,17.3-33.8,3.43-1.63,8-1.79,12.09-1.63,2.12.16,4.4,1.31,5.06-1.14.32-1.31-.33-3.1-1.31-4.9A23.8,23.8,0,0,0,158.1,56.16Z"/><path class="cls-203" d="M145,52.41c5.06-.33,7.19-4.57,2-6.86-5.71-2.45-11.92,1-14.85,5.88-2.94,4.73-1.8,8.49-2.62,13.38C130.51,56.49,137.53,52.9,145,52.41Z"/><path class="cls-203" d="M224.22,57.3c-10.77,4.9-18.61,1.8-28.73-2.61-4.41-2-8.82-3.26-13.22-5.39-8.49-3.75-17-8-26.29-3.75-.32-5.22,2.78-10.29,6.86-13.39a18.53,18.53,0,0,1,12.08-3.59c6.86.33,14.53,5.88,20.9,2.61-3.59,3.1-7.19,4.74-11.92,4.25-3.76-.33-9.8-2.45-12.08,1.63,8.49-4.24,22.36,7.67,29.55,10.61,10.94,4.57,23.34,8.65,33.47-.16C231.08,51.92,229.45,55,224.22,57.3Z"/><path class="cls-204" d="M148,133.38s52.25,29.39,94.2,5.23c1.31,25.79-18,55-51.75,51.59C161.53,187.26,146.51,168.16,148,133.38Z"/><path class="cls-205" d="M163.17,179.42c6.85,6,16,9.63,27.26,10.78C202,191.34,212,188.73,220,183.67c-7.84-9-10.29-12.08-26.61-12.25C171.82,171.42,168.88,176.48,163.17,179.42Z"/><path class="cls-3" d="M148,133.38a56.33,56.33,0,0,0,0,7.35c9.47,6,50.12,29.55,93.55,8.65a46.72,46.72,0,0,0,.65-10.61C200.23,162.77,148,133.38,148,133.38Z"/><path class="cls-206" d="M148,133.38a51.38,51.38,0,0,0,0,7c4.9-5.55,20.08,7,47.84,9.47,26.94,2.45,42.93-9.47,45.87-.81a56.46,56.46,0,0,0,.66-10.45C200.23,162.77,148,133.38,148,133.38Z"/><path class="cls-3" d="M162.35,178.61c7,6.53,16.33,10.44,28.08,11.59,13.71,1.47,25.14-2.61,33.63-9.47C198.27,190.2,168.72,177.46,162.35,178.61Z"/><polygon class="cls-199" points="187.65 290.11 195.49 303.5 218.02 279.34 206.43 220.89 205.12 204.73 187.65 290.11"/><polygon class="cls-196" points="182.1 211.75 167.9 272.97 190.1 299.58 213.61 275.91 203.16 212.4 182.1 211.75"/><polygon class="cls-196" points="180.47 198.36 179.49 211.91 205.29 215.18 206.1 199.01 180.47 198.36"/><polygon class="cls-207" points="204.14 217.79 203.16 212.4 182.1 211.75 181.29 215.34 204.14 217.79"/><polygon class="cls-196" points="178.35 200.65 177.53 213.22 207.74 216.48 208.55 201.63 178.35 200.65"/><path class="cls-208" d="M208.55,245.22l-28.73-24.33-3.59,15.51,35.1,26.12Zm-35.1,4.24-2,8.65L203,286.68l8-8Z"/><path class="cls-209" d="M203.49,237.87a3.59,3.59,0,0,1-3.43,3.59l-25-1.31a3.65,3.65,0,0,1-3.1-3.91h0a3.59,3.59,0,0,1,3.43-3.6l25,1.31a3.54,3.54,0,0,1,3.1,3.92Z"/><path class="cls-3" d="M185.86,237.05c0,1.31-.65,2.29-1.14,2.29l-7.68-.49c-.49,0-1-1.14-.81-2.45h0c0-1.31.65-2.29,1.14-2.29l7.67.49c.49,0,.82,1.15.82,2.45Z"/><path class="cls-210" d="M31.58,242s.49,37.55,58.45,26c55.18-11.1,31.34-81.79-4.74-76.57Z"/><path class="cls-201" d="M100.64,239.67c-4.74-6.37-31.51-8.49-57.14-9L31.58,242A34.62,34.62,0,0,0,47.9,265.3c6-1,19.27-4.25,19.6-14.37C85.78,255.66,109.94,252.56,100.64,239.67Z"/><path class="cls-193" d="M102.6,238.52a7.34,7.34,0,0,1-7,7.68l-63.84,2.44a7.45,7.45,0,0,1-7.67-7.18L19.5,122.12a7.33,7.33,0,0,1,7-7.68L90.35,112A7.31,7.31,0,0,1,98,119Z"/><circle class="cls-211" cx="63.09" cy="235.09" r="7.35"/><path class="cls-193" d="M69,234.93a6,6,0,0,0-6.2-5.71,6.07,6.07,0,0,0-5.71,6,6,6,0,0,0,6,5.71A5.78,5.78,0,0,0,69,234.93Z"/><path class="cls-212" d="M97.7,220.4a3.31,3.31,0,0,1-3.27,3.43l-63.67,2.28a3.31,3.31,0,0,1-3.43-3.26l-3.42-94a3.31,3.31,0,0,1,3.26-3.43l63.67-2.28a3.3,3.3,0,0,1,3.43,3.26Z"/><path class="cls-211" d="M64.88,118.69a1.68,1.68,0,0,1-1.63,1.8l-8.82.32a1.68,1.68,0,0,1-1.79-1.63h0a1.68,1.68,0,0,1,1.63-1.8l8.82-.32a1.67,1.67,0,0,1,1.79,1.63Z"/><path class="cls-213" d="M95.25,153.79l-1-27.43a3.42,3.42,0,0,0-3.43-3.26l-63.67,2.28a3.42,3.42,0,0,0-3.26,3.43l2.44,66C40.39,186.44,70.11,168.48,95.25,153.79Z"/><path class="cls-201" d="M59.33,225.13c-.32-7-4.41-14-10.94-14.85,15.84-28.74-17.63-25.47-17.63-25.47L39.09,226Z"/><path class="cls-210" d="M23.25,242.44l24.16-6c7.35-2.45,12.09-22.53.17-25.14s-32.49,4.57-36.74,6.2C6.6,219.26-1.73,238,23.25,242.44Z"/><path class="cls-210" d="M31.42,263.34c9.14,1.79,22.2,1.47,22.2,1.47,6.86-.17,16.32-15.84,6.86-21.23s-28.9-4.89-33-4.73S10.52,259.09,31.42,263.34Z"/><path class="cls-210" d="M16.4,216.32l23-5.88c7-2.28,11.43-22.37.17-25s-31,3.76-34.94,5.88C.56,193.63-7.44,211.75,16.4,216.32Z"/><path class="cls-210" d="M122.68,229.22c-11.1-36.74,17.14-49.31-12.9-53.72-24.49-3.59-15.84,40.82-5.71,48.49"/></g></g></g></svg>